<svg width="1906" height="2014" viewBox="0 0 1906 2014" fill="none" xmlns="http://www.w3.org/2000/svg">
<g clip-path="url(#clip0_15_34)">
<path d="M755.539 1198.8C755.539 1198.8 671.371 1102.4 657.209 1059.25C643.048 1016.09 603.769 941.405 594.017 955.701C584.264 969.997 615.994 1047.16 615.994 1047.16C615.994 1047.16 535.233 926.107 510.183 941.672C485.133 957.238 464.024 1006.34 484.264 1035.67C504.505 1064.99 650.396 1234.88 650.396 1234.88L755.539 1198.8Z" fill="white"/>
<path d="M650.396 1238.62C650.816 1238.69 651.245 1238.69 651.665 1238.62L756.809 1202.81C757.422 1202.59 757.974 1202.23 758.416 1201.75C758.858 1201.28 759.178 1200.7 759.347 1200.07C759.536 1199.44 759.562 1198.77 759.422 1198.13C759.281 1197.49 758.98 1196.89 758.545 1196.4C757.677 1195.46 674.711 1100.07 661.017 1058.18C649.327 1022.57 615.861 952.829 598.426 950.223C596.964 950.006 595.47 950.211 594.121 950.815C592.771 951.418 591.623 952.395 590.811 953.63C584.131 963.384 592.481 994.381 600.964 1018.83C574.244 982.022 528.553 925.773 508.045 938.666C490.263 951.482 478.033 970.593 473.844 992.11C471.868 999.86 471.488 1007.93 472.729 1015.83C473.969 1023.73 476.803 1031.3 481.058 1038.07C501.098 1067.2 641.378 1230.47 647.39 1237.41C647.782 1237.81 648.252 1238.12 648.769 1238.33C649.286 1238.53 649.839 1238.63 650.396 1238.62ZM748.726 1197L651.665 1230.07C635.099 1210.76 506.309 1060.52 487.538 1033.39C483.892 1027.46 481.486 1020.85 480.464 1013.96C479.442 1007.07 479.826 1000.05 481.592 993.312C485.413 973.978 496.296 956.759 512.12 945.013C521.205 939.468 558.346 968.06 612.32 1049.36C612.922 1050.01 613.723 1050.43 614.594 1050.57C615.466 1050.7 616.358 1050.54 617.128 1050.11C617.897 1049.68 618.5 1049 618.84 1048.19C619.179 1047.37 619.236 1046.47 619 1045.62C606.041 1014.42 590.543 966.59 596.622 957.973C605.239 957.973 637.904 1015.09 652.801 1060.45C665.76 1099.06 731.825 1177.29 748.726 1197Z" fill="#231F20"/>
<path d="M1084.4 1903.25L1070.23 2006.8C1070.23 2006.8 1703.83 2014.28 1696.28 2006.8C1688.74 1999.32 1696.28 1847.4 1696.28 1847.4L1084.4 1903.25Z" fill="#231F20"/>
<path d="M1542.31 2014.15C1697.62 2014.15 1698.69 2011.54 1699.96 2008.47C1700.27 2007.72 1700.35 2006.9 1700.19 2006.1C1700.04 2005.31 1699.66 2004.57 1699.09 2003.99C1695.28 1996.85 1696.75 1918.02 1700.22 1847.6C1700.26 1847.04 1700.17 1846.48 1699.96 1845.95C1699.75 1845.43 1699.44 1844.95 1699.03 1844.56C1698.63 1844.17 1698.14 1843.87 1697.61 1843.68C1697.08 1843.49 1696.51 1843.41 1695.95 1843.46L1083.99 1899.31C1083.11 1899.41 1082.28 1899.79 1081.64 1900.41C1081 1901.03 1080.58 1901.84 1080.45 1902.72L1066.29 2006.26C1066.22 2006.81 1066.27 2007.37 1066.43 2007.9C1066.59 2008.43 1066.87 2008.92 1067.23 2009.34C1067.59 2009.77 1068.04 2010.12 1068.54 2010.36C1069.05 2010.61 1069.6 2010.73 1070.17 2010.74C1071.77 2010.74 1227.75 2012.61 1382.12 2013.55C1448.46 2013.95 1500.76 2014.15 1542.31 2014.15ZM1691.34 2003.99C1652 2008.07 1308.11 2005.6 1074.78 2002.86L1088.14 1906.93L1692.34 1851.75C1689.6 1902.92 1686.8 1981.75 1691.34 2003.99Z" fill="#231F20"/>
<path d="M1305.97 653.679C1307.44 651.274 1308.91 648.869 1310.45 646.464C1324.6 624.954 1344.09 607.488 1367.02 595.778C1389.94 584.067 1415.52 578.513 1441.24 579.66C1462.53 580.542 1483.66 583.791 1504.23 589.347C1525.01 595.226 1532.22 613.797 1549.86 622.749C1553.61 624.305 1557.62 625.099 1561.68 625.087C1574.63 626.138 1587.31 629.321 1599.22 634.506C1631.69 648.602 1653.4 693.762 1665.09 725.026C1687.05 786.478 1700.65 850.607 1705.5 915.686C1710.91 975.809 1717.99 1043.15 1695.21 1100.93C1673.29 1158.57 1641.18 1211.79 1600.43 1258.06C1524.87 1340.96 1411.45 1390.13 1299.83 1381.11C1233.03 1375.7 1169.77 1350.92 1110.92 1319.52C1077.11 1301.48 1043.71 1280.57 1020.67 1249.97C977.181 1192.39 980.588 1104.81 1027.35 1049.56C1077.65 989.437 1156.81 963.785 1206.97 902.592C1262.28 834.652 1260.28 729.235 1305.97 653.679Z" fill="white"/>
<path d="M1325.61 1386.46C1427.21 1386.46 1531.62 1339.69 1603.36 1261.13C1644.54 1214.59 1676.89 1160.94 1698.82 1102.8C1721.2 1046.22 1715.25 980.419 1709.98 922.433L1709.38 915.752C1704.58 850.327 1690.94 785.852 1668.83 724.091C1655.94 689.62 1633.63 645.529 1600.76 631.233C1588.44 625.888 1575.33 622.615 1561.95 621.546H1560.88C1557.74 621.517 1554.64 620.906 1551.73 619.743C1545.01 615.924 1538.96 611.027 1533.83 605.246C1526.31 596.315 1516.46 589.653 1505.37 586.007C1484.5 580.33 1463.05 577.013 1441.44 576.12C1415.05 574.952 1388.8 580.631 1365.25 592.606C1341.7 604.581 1321.65 622.444 1307.04 644.46C1305.44 646.865 1303.97 649.337 1302.5 651.742C1281.72 686.213 1270.63 727.231 1259.81 766.846C1246.92 814.344 1233.56 863.445 1203.63 900.454C1178.58 931.184 1145.38 953.43 1113.25 974.874C1081.12 996.318 1049.19 1017.76 1024.08 1047.69C976.246 1104.67 973.307 1194.66 1017.4 1253.11C1041.64 1285.31 1077.52 1306.56 1108.91 1323.73C1178.32 1360.74 1240.57 1380.98 1299.36 1385.79C1308.04 1386.12 1316.86 1386.46 1325.61 1386.46ZM1435.76 583.802H1441.11C1462.09 584.753 1482.9 588.024 1503.16 593.555C1512.89 596.942 1521.53 602.898 1528.15 610.791C1533.93 617.153 1540.7 622.544 1548.19 626.757C1552.03 628.422 1556.16 629.33 1560.35 629.429H1561.48C1573.99 630.433 1586.25 633.503 1597.75 638.515C1627.68 651.675 1649.06 693.762 1661.08 727.164C1682.93 788.264 1696.41 852.039 1701.16 916.754L1701.76 923.435C1706.9 980.619 1712.78 1045.42 1691.14 1100.33C1669.51 1157.55 1637.67 1210.36 1597.15 1256.19C1520.8 1339.96 1406.77 1386.59 1299.56 1377.97C1241.91 1373.29 1180.65 1353.32 1112.52 1316.85C1081.59 1300.41 1046.92 1279.37 1023.54 1248.44C981.724 1192.99 984.596 1107.08 1030.22 1052.83C1054.6 1023.77 1086.73 1002.26 1117.8 981.488C1150.39 959.71 1184.06 937.197 1209.91 905.464C1240.84 867.52 1254.47 817.617 1267.56 769.317C1278.18 730.17 1289.2 689.754 1309.38 656.218C1310.78 653.813 1312.25 651.475 1313.79 649.137C1327.08 628.958 1345.19 612.415 1366.49 601.007C1387.79 589.599 1411.6 583.685 1435.76 583.802V583.802Z" fill="#231F20"/>
<path d="M1724.87 1941.8C1747.52 1794.83 1833.62 1189.98 1734.56 1093.38C1621.6 983.158 1310.98 987.968 1254.07 1087.64C1223.14 1141.68 1136.17 1232.67 1129.49 1350.92C1120 1518.66 1070.03 1834.31 1058.08 1941.93L1724.87 1941.8Z" fill="#BFF5C1"/>
<path d="M1474.17 1941.8L1543.51 1087.51L1367.09 1106.14L1271.17 1941.8H1474.17Z" fill="#231F20"/>
<path d="M1271.17 1945.74H1474.04C1475.03 1945.73 1475.97 1945.35 1476.7 1944.69C1477.43 1944.02 1477.88 1943.11 1477.98 1942.13L1547.52 1087.91C1547.57 1087.33 1547.5 1086.75 1547.3 1086.2C1547.1 1085.66 1546.78 1085.16 1546.36 1084.76C1545.94 1084.36 1545.44 1084.05 1544.89 1083.87C1544.34 1083.68 1543.75 1083.63 1543.18 1083.7L1366.76 1102.34C1365.86 1102.43 1365.03 1102.83 1364.39 1103.46C1363.74 1104.09 1363.33 1104.92 1363.22 1105.81L1266.96 1941.33C1266.89 1941.88 1266.93 1942.44 1267.09 1942.97C1267.26 1943.5 1267.53 1943.99 1267.9 1944.4C1268.31 1944.86 1268.81 1945.21 1269.38 1945.45C1269.95 1945.68 1270.56 1945.78 1271.17 1945.74V1945.74ZM1470.5 1937.86H1275.58L1370.63 1109.48L1539.17 1091.65L1470.5 1937.86Z" fill="#231F20"/>
<path d="M1377.18 995.851L1367.16 1106.14C1367.16 1106.14 1400.56 1144.62 1445.72 1148.23C1519.2 1154.18 1543.58 1087.51 1543.58 1087.51C1546.45 1036.4 1549.72 985.362 1552.46 934.324C1554.33 899.519 1573.04 827.972 1539.77 804.657C1530.55 797.976 1519.73 794.102 1510.31 788.156C1496.16 779.106 1484.83 766.275 1477.59 751.116C1470.35 735.957 1467.5 719.074 1469.36 702.38C1457.01 717.477 1443.85 733.176 1425.81 740.658C1410.53 745.786 1394.39 747.807 1378.32 746.604C1362.42 746.604 1342.78 743.063 1327.21 746.07C1310.51 749.343 1315.72 746.07 1311.38 760.499C1306.24 777.935 1308.78 801.651 1307.64 819.822C1305.64 852.689 1302.76 885.757 1302.76 918.692C1305.84 976.611 1377.18 995.851 1377.18 995.851Z" fill="white"/>
<path d="M1454.73 1152.57C1523.34 1152.57 1546.99 1089.51 1547.25 1088.84C1547.32 1088.47 1547.32 1088.08 1547.25 1087.71C1548.59 1064.66 1549.92 1041.68 1551.33 1018.63C1552.98 990.662 1554.6 962.627 1556.2 934.524C1556.2 927.376 1557.67 918.358 1558.88 908.805C1563.62 871.862 1570.03 821.224 1541.78 801.383C1536.36 797.749 1530.69 794.511 1524.81 791.697C1520.53 789.492 1516.12 787.288 1512.12 785.016C1498.66 776.334 1487.88 764.085 1480.98 749.635C1474.08 735.185 1471.33 719.103 1473.04 703.181C1473.14 702.332 1472.97 701.471 1472.55 700.726C1472.13 699.981 1471.48 699.39 1470.7 699.039C1469.9 698.686 1469.01 698.605 1468.17 698.811C1467.32 699.016 1466.57 699.496 1466.02 700.175C1454.6 714.137 1441.58 729.97 1424.07 737.251C1409.25 742.113 1393.61 744.042 1378.05 742.93C1372.97 742.93 1367.56 742.462 1361.82 742.061C1349.98 740.682 1338.01 740.817 1326.21 742.462L1320.13 743.531C1312.18 744.934 1310.51 745.802 1309.04 752.75C1308.71 754.353 1308.24 756.625 1307.37 759.43C1304.2 773.13 1302.99 787.21 1303.77 801.25C1303.77 807.93 1303.77 814.009 1303.77 819.688C1303.3 827.437 1302.76 835.186 1302.23 842.936C1300.63 867.787 1298.89 893.44 1298.89 918.759C1301.83 972.202 1359.01 994.181 1373.11 998.924L1363.29 1105.81C1363.24 1106.34 1363.29 1106.87 1363.45 1107.38C1363.61 1107.88 1363.88 1108.35 1364.22 1108.75C1365.62 1110.35 1399.36 1148.5 1445.45 1152.17C1448.57 1152.44 1451.66 1152.57 1454.73 1152.57ZM1539.64 1086.64C1537.1 1093.32 1512.92 1149.57 1446.12 1144.29C1407.71 1141.22 1377.45 1110.89 1371.3 1104.74L1381.32 996.185C1381.4 995.258 1381.15 994.335 1380.61 993.577C1380.07 992.819 1379.28 992.276 1378.38 992.043C1377.71 992.043 1309.78 972.803 1306.84 918.558C1306.84 893.774 1308.51 868.254 1310.18 843.537C1310.71 835.721 1311.18 827.972 1311.65 820.222C1312.05 814.277 1311.98 807.997 1311.98 801.317C1311.27 788.046 1312.37 774.741 1315.26 761.769C1316.02 759.289 1316.64 756.768 1317.13 754.22C1317.28 753.385 1317.48 752.56 1317.73 751.748C1319.1 751.695 1320.46 751.516 1321.8 751.213L1328.08 750.145C1339.17 748.743 1350.39 748.743 1361.48 750.145C1367.36 750.545 1372.9 750.946 1378.18 751.013C1394.8 752.272 1411.5 750.159 1427.28 744.8C1442.05 737.579 1454.89 726.955 1464.75 713.803C1465.13 729.264 1469.27 744.4 1476.83 757.894C1484.38 771.388 1495.12 782.832 1508.11 791.229C1512.45 793.901 1516.99 796.24 1521.47 798.444C1527.01 801.132 1532.37 804.189 1537.5 807.596C1561.82 824.698 1555.74 872.597 1551.33 907.803C1550.06 917.489 1548.92 926.641 1548.52 934.124C1547.05 962.092 1545.43 990.105 1543.65 1018.16C1542.27 1041.01 1540.93 1063.84 1539.64 1086.64Z" fill="#231F20"/>
<path d="M1507.44 871.661C1515.79 848.213 1546.45 831.579 1570.83 837.591C1602.3 845.675 1598.42 881.882 1586.13 904.396C1582.38 911.177 1577.33 917.148 1571.26 921.963C1565.19 926.779 1558.23 930.343 1550.78 932.449C1543.32 934.555 1535.52 935.162 1527.83 934.234C1520.14 933.306 1512.71 930.861 1505.97 927.042" fill="white"/>
<path d="M1534.96 938.466C1546.14 938.458 1557.11 935.455 1566.73 929.769C1576.35 924.082 1584.27 915.92 1589.67 906.133C1597.15 892.772 1603.03 870.459 1595.88 853.29C1593.7 848.374 1590.38 844.043 1586.2 840.653C1582.02 837.263 1577.1 834.909 1571.84 833.784C1545.92 827.103 1512.78 844.873 1503.77 870.326C1503.59 870.817 1503.51 871.338 1503.54 871.859C1503.57 872.38 1503.69 872.891 1503.92 873.362C1504.14 873.834 1504.45 874.257 1504.84 874.607C1505.23 874.957 1505.68 875.227 1506.17 875.403C1506.66 875.578 1507.18 875.655 1507.7 875.629C1508.23 875.603 1508.74 875.475 1509.21 875.252C1509.68 875.028 1510.1 874.714 1510.45 874.328C1510.8 873.941 1511.07 873.489 1511.25 872.998C1516 861.868 1524.39 852.681 1535.05 846.94C1545.7 841.2 1557.99 839.246 1569.9 841.399C1573.97 842.273 1577.78 844.087 1581.03 846.697C1584.28 849.307 1586.87 852.64 1588.6 856.43C1594.48 869.791 1589.87 889.298 1582.72 902.258C1579.24 908.601 1574.53 914.188 1568.87 918.694C1563.21 923.2 1556.71 926.535 1549.75 928.506C1542.79 930.477 1535.5 931.043 1528.32 930.173C1521.14 929.302 1514.2 927.012 1507.91 923.435C1507.46 923.164 1506.96 922.986 1506.44 922.914C1505.92 922.841 1505.39 922.874 1504.89 923.012C1504.38 923.149 1503.91 923.388 1503.5 923.713C1503.09 924.038 1502.75 924.444 1502.5 924.905C1502.23 925.356 1502.07 925.854 1502 926.371C1501.93 926.888 1501.96 927.414 1502.1 927.917C1502.24 928.421 1502.47 928.892 1502.79 929.303C1503.11 929.715 1503.51 930.059 1503.97 930.316C1513.43 935.643 1524.1 938.449 1534.96 938.466V938.466Z" fill="#231F20"/>
<path d="M1387.2 803.789C1387.2 803.789 1340.97 855.896 1348.72 867.052C1356.47 878.209 1382.92 875.202 1382.92 875.202" fill="white"/>
<path d="M1374.44 879.545C1378.85 879.545 1382.19 879.545 1383.13 879.144C1384.17 879.01 1385.11 878.473 1385.76 877.649C1386.41 876.824 1386.71 875.778 1386.6 874.735C1386.55 874.212 1386.4 873.705 1386.14 873.244C1385.89 872.783 1385.55 872.377 1385.14 872.053C1384.73 871.728 1384.25 871.49 1383.75 871.354C1383.24 871.218 1382.71 871.186 1382.19 871.261C1375.98 871.996 1356.94 872.33 1351.73 864.58C1348.59 860.038 1366.76 832.18 1389.87 806.127C1390.3 805.753 1390.65 805.291 1390.88 804.773C1391.12 804.255 1391.25 803.692 1391.25 803.123C1391.25 802.553 1391.13 801.989 1390.9 801.468C1390.67 800.948 1390.33 800.483 1389.9 800.105C1389.48 799.727 1388.97 799.443 1388.43 799.274C1387.89 799.105 1387.31 799.055 1386.75 799.125C1386.18 799.195 1385.64 799.386 1385.15 799.683C1384.66 799.98 1384.25 800.378 1383.93 800.849C1369.43 817.216 1336.57 856.631 1345.18 869.056C1351.19 878.008 1365.16 879.545 1374.44 879.545Z" fill="#231F20"/>
<path d="M1377.18 995.851C1377.18 995.851 1418.4 1007.54 1471.43 979.617C1471.43 979.617 1445.52 1055.44 1371.77 1055.57L1377.18 995.851Z" fill="#231F20"/>
<path d="M1371.77 1059.52C1447.45 1059.52 1474.91 981.688 1475.18 980.887C1475.44 980.137 1475.46 979.324 1475.25 978.559C1475.03 977.795 1474.59 977.114 1473.97 976.611C1473.38 976.089 1472.64 975.759 1471.85 975.664C1471.06 975.568 1470.27 975.712 1469.56 976.077C1418.6 1002.8 1378.72 992.176 1378.32 992.043C1377.75 991.878 1377.16 991.841 1376.59 991.933C1376.01 992.026 1375.46 992.246 1374.98 992.577C1374.49 992.909 1374.08 993.345 1373.78 993.853C1373.48 994.361 1373.29 994.929 1373.24 995.517L1367.83 1055.17C1367.77 1055.72 1367.83 1056.28 1368 1056.8C1368.18 1057.33 1368.46 1057.81 1368.83 1058.22C1369.2 1058.63 1369.66 1058.96 1370.16 1059.18C1370.67 1059.4 1371.22 1059.52 1371.77 1059.52V1059.52ZM1463.49 987.701C1454 1007.01 1427.61 1048.96 1376.11 1051.3L1380.72 1000.46C1408.96 1004.59 1437.8 1000.15 1463.49 987.701V987.701Z" fill="#231F20"/>
<path d="M1445.92 831.312C1441.67 831.312 1438.24 823.476 1438.24 813.809C1438.24 804.143 1441.67 796.306 1445.92 796.306C1450.16 796.306 1453.6 804.143 1453.6 813.809C1453.6 823.476 1450.16 831.312 1445.92 831.312Z" fill="#231F20"/>
<path d="M1343.99 821.139C1339.76 820.9 1336.76 812.883 1337.31 803.232C1337.85 793.581 1341.72 785.95 1345.96 786.189C1350.19 786.427 1353.19 794.444 1352.64 804.095C1352.1 813.746 1348.23 821.377 1343.99 821.139Z" fill="#231F20"/>
<path d="M1401.96 958.841C1404 958.826 1406.03 958.647 1408.04 958.307C1410.95 957.814 1413.73 956.7 1416.17 955.04C1418.61 953.38 1420.67 951.213 1422.2 948.687C1433.83 930.316 1423.87 892.304 1423.47 890.634C1423.2 889.654 1422.57 888.814 1421.7 888.292C1420.83 887.769 1419.79 887.603 1418.8 887.828L1358.68 900.32C1357.7 900.53 1356.83 901.099 1356.25 901.915C1355.67 902.731 1355.41 903.735 1355.54 904.73C1358.14 922.958 1367.33 939.598 1381.39 951.493C1387.26 956.117 1394.49 958.697 1401.96 958.841V958.841ZM1416.66 896.379C1419.4 908.471 1422.8 932.921 1415.52 944.411C1414.58 946.017 1413.3 947.394 1411.76 948.445C1410.23 949.496 1408.48 950.195 1406.64 950.49C1403.06 951.121 1399.39 950.989 1395.87 950.103C1392.35 949.216 1389.05 947.595 1386.2 945.347C1374.74 935.552 1366.97 922.144 1364.15 907.335L1416.66 896.379Z" fill="#231F20"/>
<path d="M984.797 1364.14C955.939 1349.71 726.415 1098.26 726.415 1098.26L592.815 1210.16C595.219 1228.53 804.971 1667.17 927.75 1644.79C1050.53 1622.41 1313.99 1465.22 1313.99 1465.22L1253.87 1087.51C1253.87 1087.51 1013.72 1378.57 984.797 1364.14Z" fill="#BFF5C1"/>
<path d="M1070.23 1851.35C1071.16 1851.34 1072.06 1851.01 1072.77 1850.42C1073.48 1849.82 1073.95 1848.99 1074.11 1848.07L1178.52 1243.23C1178.6 1242.71 1178.59 1242.19 1178.47 1241.68C1178.36 1241.17 1178.15 1240.69 1177.84 1240.27C1177.54 1239.84 1177.16 1239.48 1176.72 1239.2C1176.28 1238.93 1175.79 1238.74 1175.28 1238.65C1174.76 1238.56 1174.24 1238.58 1173.73 1238.69C1173.22 1238.81 1172.74 1239.02 1172.32 1239.32C1171.89 1239.62 1171.53 1240.01 1171.25 1240.45C1170.98 1240.89 1170.79 1241.38 1170.7 1241.89L1066.56 1846.74C1066.46 1847.25 1066.47 1847.77 1066.58 1848.28C1066.69 1848.78 1066.9 1849.26 1067.2 1849.69C1067.5 1850.11 1067.88 1850.47 1068.32 1850.74C1068.76 1851.02 1069.25 1851.2 1069.77 1851.28L1070.23 1851.35Z" fill="#231F20"/>
<path d="M1419.6 1675.78C1419.13 1671.98 1388.67 1667.77 1384.33 1666.5C1368.9 1661.96 1352.73 1659.02 1336.97 1655.81C1306.3 1649.66 1273.51 1642.92 1242.11 1645.72C1187 1650.73 1254.67 1685.8 1254.67 1685.8C1254.67 1685.8 1126.81 1653.2 1134.43 1685.8C1142.04 1718.41 1202.16 1748.53 1239.77 1758.55C1277.38 1768.58 1430.35 1758.55 1430.35 1758.55L1419.6 1675.78Z" fill="white"/>
<path d="M1306.24 1766.84C1361.15 1766.84 1426.48 1762.63 1430.49 1762.36C1431.57 1762.27 1432.57 1761.77 1433.29 1760.96C1433.63 1760.54 1433.88 1760.06 1434.03 1759.54C1434.17 1759.03 1434.22 1758.49 1434.16 1757.95C1434.16 1757.95 1423.61 1675.78 1423.54 1675.18C1422.94 1670.57 1417.46 1668.5 1392.94 1664.16C1389.34 1663.49 1386.26 1662.96 1385.4 1662.62C1372.04 1658.75 1358.07 1655.94 1344.58 1653.27L1336.03 1651.53C1305.1 1645.32 1273.17 1638.91 1241.78 1641.71C1231.89 1642.65 1218.53 1644.92 1216.73 1654.07C1215.26 1661.55 1223.41 1669.77 1232.22 1676.52C1200.43 1669.84 1147.25 1661.09 1133.76 1674.31C1132.14 1675.88 1130.98 1677.86 1130.4 1680.04C1129.82 1682.22 1129.85 1684.51 1130.49 1686.67C1138.44 1721.08 1198.49 1751.61 1238.64 1762.3C1251.6 1765.7 1277.51 1766.84 1306.24 1766.84ZM1425.81 1754.75C1400.96 1756.28 1273.77 1763.43 1240.64 1754.75C1202.03 1744.46 1144.98 1714.66 1138.17 1684.94C1137.85 1684.09 1137.78 1683.17 1137.98 1682.29C1138.19 1681.41 1138.65 1680.61 1139.3 1679.99C1150.79 1668.7 1215.59 1679.99 1253.73 1689.68C1254.67 1689.9 1255.66 1689.77 1256.51 1689.32C1257.36 1688.86 1258.01 1688.11 1258.34 1687.21C1258.7 1686.31 1258.7 1685.31 1258.35 1684.41C1258.01 1683.5 1257.34 1682.76 1256.47 1682.33C1240.17 1673.85 1223.07 1661.15 1224.47 1655.61C1224.88 1653.54 1229.82 1650.73 1242.51 1649.6C1272.77 1646.86 1304.1 1653.2 1334.49 1659.28L1343.04 1661.02C1356.4 1663.63 1370.17 1666.36 1383.12 1670.24C1384.33 1670.57 1387.53 1671.17 1391.47 1671.91C1399.71 1673.16 1407.84 1675.04 1415.79 1677.52C1417.06 1686.61 1423.81 1739.45 1425.81 1754.75Z" fill="#231F20"/>
<path d="M1750.86 1118.37C1753.46 1125.05 1992.61 1693.89 1871.1 1768.51C1749.59 1843.13 1371.5 1814.2 1371.5 1814.2L1387.2 1645.59L1690.81 1604.84L1750.86 1118.37Z" fill="#BFF5C1"/>
<path d="M1400.56 1649.53H1401.23L1757.41 1593.08C1758.44 1592.91 1759.37 1592.34 1759.98 1591.49C1760.6 1590.64 1760.85 1589.57 1760.68 1588.54C1760.51 1587.5 1759.94 1586.57 1759.09 1585.96C1758.23 1585.35 1757.17 1585.1 1756.14 1585.26L1399.96 1641.71C1398.93 1641.88 1398.01 1642.44 1397.4 1643.28C1396.79 1644.12 1396.53 1645.16 1396.69 1646.19C1396.82 1647.12 1397.28 1647.98 1397.99 1648.59C1398.71 1649.2 1399.62 1649.54 1400.56 1649.53V1649.53Z" fill="#231F20"/>
<path d="M1708.91 1593.15C1709.95 1593.15 1710.96 1592.73 1711.7 1591.99C1712.43 1591.25 1712.85 1590.25 1712.85 1589.21C1713.85 1495.01 1687.87 1257.79 1687.6 1255.18C1687.45 1254.15 1686.91 1253.21 1686.09 1252.57C1685.27 1251.92 1684.23 1251.61 1683.19 1251.71C1682.16 1251.83 1681.21 1252.35 1680.56 1253.16C1679.91 1253.98 1679.6 1255.02 1679.72 1256.05C1679.72 1258.46 1705.9 1495.21 1704.97 1588.94C1704.95 1589.46 1705.04 1589.98 1705.22 1590.46C1705.41 1590.95 1705.69 1591.39 1706.05 1591.77C1706.42 1592.14 1706.85 1592.44 1707.33 1592.64C1707.81 1592.84 1708.32 1592.95 1708.84 1592.95L1708.91 1593.15Z" fill="#231F20"/>
<path d="M986.133 1673.18H1436.77L1358.28 1393.74H907.643L986.133 1673.18Z" fill="white"/>
<path d="M986.4 1677.12H1436.77C1437.37 1677.11 1437.97 1676.97 1438.51 1676.71C1439.05 1676.44 1439.53 1676.06 1439.91 1675.58C1440.27 1675.09 1440.53 1674.53 1440.64 1673.92C1440.76 1673.32 1440.74 1672.7 1440.57 1672.11L1362.02 1392.67C1361.79 1391.85 1361.3 1391.13 1360.62 1390.61C1359.95 1390.09 1359.13 1389.81 1358.28 1389.8H907.643C907.031 1389.8 906.429 1389.95 905.884 1390.23C905.339 1390.5 904.866 1390.91 904.503 1391.4C904.135 1391.88 903.882 1392.43 903.766 1393.02C903.65 1393.61 903.674 1394.23 903.835 1394.81L982.392 1674.25C982.634 1675.11 983.163 1675.87 983.891 1676.39C984.62 1676.91 985.505 1677.17 986.4 1677.12V1677.12ZM1431.56 1669.1H989.139L912.92 1397.68H1355.27L1431.56 1669.1Z" fill="#231F20"/>
<path d="M981.791 1673.18H1557.74V1696.16H981.791V1673.18Z" fill="white"/>
<path d="M981.791 1700.1H1557.74C1558.26 1700.11 1558.78 1700.01 1559.26 1699.82C1559.74 1699.62 1560.18 1699.33 1560.55 1698.97C1560.92 1698.6 1561.21 1698.16 1561.4 1697.68C1561.59 1697.2 1561.69 1696.68 1561.68 1696.16V1673.18C1561.69 1672.66 1561.59 1672.14 1561.4 1671.66C1561.21 1671.18 1560.92 1670.74 1560.55 1670.37C1560.18 1670 1559.74 1669.71 1559.26 1669.52C1558.78 1669.32 1558.26 1669.23 1557.74 1669.24H981.791C980.746 1669.24 979.743 1669.65 979.004 1670.39C978.265 1671.13 977.85 1672.13 977.85 1673.18V1696.16C977.85 1697.2 978.265 1698.21 979.004 1698.95C979.743 1699.69 980.746 1700.1 981.791 1700.1V1700.1ZM1553.8 1692.22H985.999V1677.12H1553.8V1692.22Z" fill="#231F20"/>
<path d="M1430.09 1673.18H1557.74V1696.16H1430.09V1673.18Z" fill="white"/>
<path d="M1430.09 1700.1H1557.74C1558.26 1700.11 1558.78 1700.01 1559.26 1699.82C1559.74 1699.62 1560.18 1699.33 1560.55 1698.97C1560.92 1698.6 1561.21 1698.16 1561.4 1697.68C1561.59 1697.2 1561.69 1696.68 1561.68 1696.16V1673.18C1561.69 1672.66 1561.59 1672.14 1561.4 1671.66C1561.21 1671.18 1560.92 1670.74 1560.55 1670.37C1560.18 1670 1559.74 1669.71 1559.26 1669.52C1558.78 1669.32 1558.26 1669.23 1557.74 1669.24H1430.09C1429.57 1669.23 1429.05 1669.32 1428.57 1669.52C1428.08 1669.71 1427.65 1670 1427.28 1670.37C1426.91 1670.74 1426.62 1671.18 1426.43 1671.66C1426.23 1672.14 1426.14 1672.66 1426.14 1673.18V1696.16C1426.14 1696.68 1426.23 1697.2 1426.43 1697.68C1426.62 1698.16 1426.91 1698.6 1427.28 1698.97C1427.65 1699.33 1428.08 1699.62 1428.57 1699.82C1429.05 1700.01 1429.57 1700.11 1430.09 1700.1V1700.1ZM1553.8 1692.22H1433.96V1677.12H1553.8V1692.22Z" fill="#231F20"/>
<path d="M1305.84 1696.96C1277.85 1688.08 1253.47 1670.84 1228.22 1655.81C1208.18 1643.72 1185.73 1632.36 1161.95 1629.09C1153.05 1628.62 1144.13 1628.62 1135.23 1629.09C1127.41 1629.09 1116.46 1625.95 1111.12 1633.76C1100.76 1648.8 1108.64 1686.21 1166.76 1724.42" fill="white"/>
<path d="M1166.76 1728.56C1167.6 1728.55 1168.41 1728.27 1169.08 1727.76C1169.75 1727.25 1170.24 1726.54 1170.48 1725.74C1170.72 1724.93 1170.7 1724.07 1170.41 1723.28C1170.13 1722.49 1169.6 1721.81 1168.9 1721.34C1136.83 1700.23 1116.06 1676.05 1111.92 1655.01C1111.06 1651.87 1110.83 1648.6 1111.26 1645.37C1111.68 1642.15 1112.75 1639.04 1114.39 1636.24C1117.19 1632.09 1122.74 1632.23 1130.29 1632.9H1135.03C1138.83 1633.1 1142.65 1633.1 1146.45 1632.9C1151.43 1632.39 1156.44 1632.39 1161.42 1632.9C1184.51 1637.26 1206.51 1646.16 1226.14 1659.08C1231.36 1662.16 1236.57 1665.36 1241.78 1668.57C1261.34 1681.79 1282.45 1692.56 1304.63 1700.64C1305.64 1700.93 1306.71 1700.82 1307.64 1700.34C1308.56 1699.85 1309.26 1699.02 1309.58 1698.03C1309.89 1697.04 1309.8 1695.96 1309.33 1695.03C1308.85 1694.11 1308.03 1693.41 1307.04 1693.09C1285.47 1685.19 1264.94 1674.69 1245.92 1661.82L1230.22 1652.27C1210.85 1640.78 1187.67 1628.55 1162.55 1625.08C1157.04 1624.51 1151.49 1624.51 1145.99 1625.08C1142.31 1625.08 1138.9 1625.48 1135.36 1625.08H1131.02C1123.67 1624.48 1113.52 1623.54 1107.84 1631.76C1105.62 1635.44 1104.15 1639.53 1103.52 1643.78C1102.89 1648.04 1103.11 1652.38 1104.17 1656.54C1106.84 1669.91 1118.2 1697.43 1164.62 1727.89C1165.25 1728.33 1166 1728.56 1166.76 1728.56V1728.56Z" fill="#231F20"/>
<path d="M358.25 1206.17H986.17C986.794 1206.18 987.413 1206.04 987.972 1205.77C988.532 1205.49 989.016 1205.08 989.383 1204.57C989.751 1204.07 989.991 1203.48 990.082 1202.86C990.174 1202.25 990.115 1201.62 989.91 1201.03L715.63 349.806C715.387 349 714.893 348.293 714.22 347.788C713.547 347.283 712.73 347.007 711.889 347H83.9689C83.339 346.997 82.7178 347.147 82.1591 347.438C81.6004 347.729 81.1209 348.152 80.7624 348.67C80.4029 349.177 80.1624 349.759 80.0583 350.372C79.9542 350.985 79.9893 351.613 80.1613 352.211L354.442 1203.43C354.7 1204.23 355.209 1204.94 355.894 1205.43C356.58 1205.92 357.405 1206.18 358.25 1206.17V1206.17ZM980.959 1198.29H361.122L89.0458 354.95H708.95L980.959 1198.29Z" fill="#231F20"/>
<path d="M461.79 476.4H672.277C672.762 476.409 673.241 476.297 673.672 476.076C674.103 475.854 674.473 475.53 674.749 475.131C675.052 474.751 675.254 474.3 675.335 473.821C675.417 473.342 675.376 472.85 675.216 472.392L650.3 395.166C650.101 394.543 649.709 394 649.18 393.616C648.651 393.232 648.014 393.026 647.361 393.028H436.74C436.255 393.02 435.776 393.131 435.345 393.352C434.914 393.574 434.544 393.898 434.269 394.297C433.98 394.698 433.788 395.159 433.707 395.646C433.625 396.132 433.658 396.631 433.801 397.103L458.717 474.262C458.923 474.907 459.335 475.466 459.891 475.853C460.446 476.239 461.114 476.432 461.79 476.4ZM668.202 470.254H463.994L441.082 399.174H645.156L668.202 470.254Z" fill="#D1D3D4"/>
<path d="M175.953 399.174H382.164C382.979 399.174 383.761 398.85 384.337 398.274C384.914 397.698 385.237 396.916 385.237 396.101C385.22 395.291 384.891 394.52 384.318 393.947C383.746 393.374 382.974 393.045 382.164 393.028H175.953C175.138 393.028 174.356 393.352 173.78 393.928C173.204 394.504 172.88 395.286 172.88 396.101C172.871 396.507 172.944 396.911 173.095 397.288C173.247 397.665 173.473 398.007 173.76 398.294C174.047 398.582 174.389 398.808 174.766 398.959C175.143 399.11 175.547 399.183 175.953 399.174Z" fill="#D1D3D4"/>
<path d="M191.718 448.075H397.929C398.335 448.084 398.739 448.011 399.116 447.86C399.493 447.708 399.835 447.482 400.123 447.195C400.41 446.908 400.636 446.566 400.787 446.189C400.938 445.812 401.011 445.408 401.002 445.002C401.002 444.187 400.678 443.405 400.102 442.829C399.526 442.253 398.744 441.929 397.929 441.929H191.718C190.903 441.929 190.121 442.253 189.545 442.829C188.969 443.405 188.645 444.187 188.645 445.002C188.636 445.408 188.709 445.812 188.86 446.189C189.012 446.566 189.238 446.908 189.525 447.195C189.812 447.482 190.154 447.708 190.531 447.86C190.908 448.011 191.312 448.084 191.718 448.075V448.075Z" fill="#D1D3D4"/>
<path d="M207.483 497.042H413.694C414.14 497.108 414.595 497.077 415.028 496.951C415.461 496.825 415.862 496.607 416.203 496.312C416.544 496.017 416.818 495.653 417.006 495.243C417.193 494.833 417.291 494.387 417.291 493.936C417.291 493.485 417.193 493.039 417.006 492.629C416.818 492.219 416.544 491.855 416.203 491.56C415.862 491.265 415.461 491.047 415.028 490.921C414.595 490.795 414.14 490.764 413.694 490.83H207.483C206.737 490.939 206.056 491.313 205.563 491.884C205.071 492.454 204.8 493.182 204.8 493.936C204.8 494.69 205.071 495.418 205.563 495.988C206.056 496.559 206.737 496.933 207.483 497.042V497.042Z" fill="#D1D3D4"/>
<path d="M223.247 545.743H429.526C430.271 545.633 430.952 545.259 431.445 544.689C431.937 544.118 432.208 543.39 432.208 542.636C432.208 541.883 431.937 541.154 431.445 540.584C430.952 540.014 430.271 539.639 429.526 539.53H223.247C222.502 539.639 221.821 540.014 221.328 540.584C220.835 541.154 220.564 541.883 220.564 542.636C220.564 543.39 220.835 544.118 221.328 544.689C221.821 545.259 222.502 545.633 223.247 545.743V545.743Z" fill="#D1D3D4"/>
<path d="M448.43 759.516H483.834C484.311 759.522 484.783 759.416 485.212 759.207C485.641 758.998 486.015 758.692 486.306 758.314C486.609 757.921 486.811 757.459 486.892 756.97C486.974 756.48 486.933 755.978 486.773 755.508L464.93 687.769C464.731 687.146 464.338 686.603 463.81 686.219C463.281 685.834 462.644 685.628 461.99 685.631H426.587C426.102 685.622 425.622 685.733 425.191 685.955C424.76 686.176 424.39 686.501 424.115 686.9C423.827 687.288 423.635 687.738 423.554 688.214C423.472 688.69 423.505 689.178 423.647 689.639L445.491 757.445C445.692 758.061 446.087 758.596 446.617 758.969C447.146 759.342 447.782 759.534 448.43 759.516V759.516ZM479.626 753.37H450.701L430.661 691.777H459.652L479.626 753.37Z" fill="#D1D3D4"/>
<path d="M366.533 759.516H401.67C402.144 759.507 402.611 759.395 403.038 759.187C403.465 758.979 403.841 758.681 404.141 758.314C404.43 757.914 404.622 757.452 404.703 756.966C404.785 756.479 404.752 755.98 404.609 755.508L364.128 630.25C363.942 629.633 363.562 629.092 363.045 628.707C362.528 628.322 361.901 628.113 361.256 628.112H325.785C325.303 628.12 324.83 628.239 324.401 628.459C323.973 628.679 323.6 628.995 323.313 629.382C323.037 629.775 322.857 630.228 322.787 630.703C322.718 631.179 322.761 631.664 322.913 632.121L363.594 757.512C363.807 758.115 364.207 758.635 364.735 758.996C365.264 759.356 365.894 759.538 366.533 759.516V759.516ZM397.662 753.37H368.738L330.328 634.258H359.252L397.662 753.37Z" fill="#D1D3D4"/>
<path d="M284.369 759.516H319.773C320.25 759.522 320.722 759.416 321.151 759.207C321.58 758.998 321.954 758.692 322.244 758.314C322.533 757.914 322.725 757.452 322.806 756.966C322.888 756.479 322.855 755.98 322.712 755.508L269.272 589.5C269.073 588.877 268.681 588.334 268.153 587.95C267.624 587.565 266.986 587.359 266.333 587.362H230.929C230.444 587.353 229.965 587.464 229.534 587.686C229.103 587.907 228.733 588.232 228.457 588.631C228.17 589.019 227.978 589.469 227.896 589.945C227.815 590.421 227.847 590.909 227.99 591.37L281.43 757.445C281.631 758.061 282.026 758.596 282.556 758.969C283.085 759.342 283.721 759.534 284.369 759.516V759.516ZM315.564 753.37H286.573L234.67 593.575H263.661L315.564 753.37Z" fill="#D1D3D4"/>
<path d="M253.508 759.516H514.896C515.305 759.525 515.712 759.452 516.092 759.302C516.473 759.151 516.82 758.927 517.112 758.64C517.404 758.354 517.637 758.012 517.796 757.635C517.954 757.258 518.036 756.853 518.036 756.443C518.018 755.622 517.68 754.841 517.093 754.266C516.506 753.692 515.717 753.37 514.896 753.37H253.508C252.693 753.37 251.911 753.694 251.335 754.27C250.758 754.847 250.435 755.628 250.435 756.443C250.426 756.849 250.499 757.253 250.65 757.63C250.801 758.007 251.027 758.349 251.315 758.637C251.602 758.924 251.944 759.15 252.321 759.301C252.698 759.452 253.102 759.525 253.508 759.516V759.516Z" fill="#D1D3D4"/>
<path d="M776.284 1125.27H881.628C882.112 1125.27 882.589 1125.16 883.019 1124.94C883.449 1124.72 883.82 1124.39 884.1 1124C884.388 1123.6 884.58 1123.14 884.661 1122.65C884.743 1122.17 884.71 1121.67 884.567 1121.19L811.421 894.661C811.235 894.044 810.855 893.503 810.338 893.118C809.821 892.733 809.193 892.525 808.549 892.523H703.205C702.72 892.515 702.241 892.626 701.81 892.848C701.379 893.069 701.009 893.394 700.734 893.793C700.446 894.18 700.254 894.63 700.173 895.106C700.091 895.582 700.123 896.07 700.266 896.532L773.345 1123.13C773.544 1123.75 773.936 1124.3 774.465 1124.68C774.993 1125.07 775.631 1125.27 776.284 1125.27V1125.27ZM877.353 1119.12H778.556L707.414 898.669H806.278L877.353 1119.12Z" fill="#D1D3D4"/>
<path d="M520.24 1114.45C554.776 1114.45 583.366 1101.09 600.734 1077.37C619.371 1051.78 623.112 1017.25 611.222 980.505C587.708 907.688 509.352 848.5 436.473 848.5C435.996 848.494 435.524 848.6 435.095 848.809C434.666 849.018 434.292 849.324 434.001 849.702C433.713 850.102 433.521 850.564 433.44 851.05C433.358 851.537 433.391 852.036 433.534 852.508L474.148 978.367H348.23C347.746 978.358 347.266 978.47 346.835 978.691C346.404 978.913 346.034 979.237 345.759 979.636C345.455 980.016 345.253 980.467 345.172 980.946C345.09 981.425 345.131 981.917 345.291 982.375C369.072 1055.19 447.428 1114.45 520.24 1114.45ZM605.343 982.375C616.633 1017.31 613.226 1049.78 595.791 1073.76C579.559 1096.01 552.772 1108.23 520.24 1108.23C451.236 1108.23 377.021 1053.12 352.773 984.513H478.357C478.841 984.522 479.321 984.41 479.752 984.189C480.183 983.968 480.553 983.643 480.828 983.244C481.132 982.864 481.333 982.414 481.415 981.935C481.497 981.456 481.456 980.964 481.296 980.505L440.681 854.712C509.886 856.917 583.032 913.367 605.343 982.375V982.375Z" fill="#D1D3D4"/>
<path d="M321.51 965.34H451.236C451.718 965.332 452.191 965.214 452.62 964.994C453.048 964.774 453.421 964.458 453.708 964.071C453.984 963.677 454.164 963.225 454.234 962.749C454.303 962.273 454.26 961.788 454.108 961.332L412.225 831.464C412.026 830.842 411.634 830.299 411.105 829.914C410.576 829.53 409.939 829.324 409.286 829.327C374.817 829.327 346.226 842.688 329.126 866.403C310.488 891.989 306.748 926.527 318.638 963.269C318.836 963.874 319.221 964.4 319.737 964.773C320.253 965.145 320.874 965.343 321.51 965.34V965.34ZM447.161 959.194H323.781C313.294 925.057 317.101 893.459 334.002 870.01C349.833 848.232 375.819 836.074 407.482 835.473L447.161 959.194Z" fill="#D1D3D4"/>
<path d="M660.186 1118.99H732.864C733.679 1118.99 734.461 1118.67 735.037 1118.09C735.614 1117.51 735.937 1116.73 735.937 1115.92C735.946 1115.51 735.873 1115.11 735.722 1114.73C735.571 1114.35 735.345 1114.01 735.058 1113.72C734.77 1113.44 734.428 1113.21 734.051 1113.06C733.674 1112.91 733.271 1112.83 732.864 1112.84H660.186C659.78 1112.83 659.376 1112.91 659 1113.06C658.623 1113.21 658.28 1113.44 657.993 1113.72C657.706 1114.01 657.48 1114.35 657.328 1114.73C657.177 1115.11 657.104 1115.51 657.113 1115.92C657.113 1116.73 657.437 1117.51 658.013 1118.09C658.59 1118.67 659.371 1118.99 660.186 1118.99V1118.99Z" fill="#D1D3D4"/>
<path d="M676.285 1075.7H718.903C719.718 1075.7 720.5 1075.38 721.076 1074.8C721.652 1074.22 721.976 1073.44 721.976 1072.63C721.976 1071.81 721.652 1071.03 721.076 1070.45C720.5 1069.88 719.718 1069.55 718.903 1069.55H676.285C675.47 1069.55 674.688 1069.88 674.112 1070.45C673.536 1071.03 673.212 1071.81 673.212 1072.63C673.212 1073.44 673.536 1074.22 674.112 1074.8C674.688 1075.38 675.47 1075.7 676.285 1075.7Z" fill="#D1D3D4"/>
<path d="M670.74 786.706C702.403 786.706 728.722 774.547 744.688 752.569C761.855 729.054 765.262 697.455 754.307 663.519C732.73 596.714 660.787 542.269 593.987 542.269C562.257 542.269 536.004 554.36 519.972 576.339C502.872 599.854 499.465 631.519 510.353 665.389C531.796 732.26 603.806 786.706 670.74 786.706ZM593.853 548.415C658.315 548.415 727.453 600.923 748.495 665.389C758.782 697.388 755.71 727.049 739.744 748.961C724.915 769.003 700.399 780.493 670.74 780.493C606.278 780.493 537.14 728.051 516.098 663.519C505.744 631.519 508.884 601.858 524.849 579.947C539.612 559.638 564.127 548.415 593.853 548.415Z" fill="#D1D3D4"/>
<path d="M241.35 1469.11H631.329C631.951 1469.11 632.564 1468.97 633.121 1468.69C633.677 1468.41 634.161 1468.01 634.535 1467.51C634.897 1467 635.134 1466.42 635.227 1465.8C635.32 1465.19 635.266 1464.56 635.069 1463.97L530.995 1141.37C530.75 1140.57 530.254 1139.87 529.579 1139.38C528.905 1138.88 528.09 1138.62 527.254 1138.63H137.075C136.448 1138.63 135.829 1138.78 135.271 1139.06C134.712 1139.35 134.23 1139.76 133.864 1140.27C133.498 1140.78 133.259 1141.37 133.167 1141.99C133.075 1142.61 133.132 1143.25 133.335 1143.84L237.409 1466.37C237.663 1467.2 238.189 1467.93 238.904 1468.43C239.62 1468.92 240.481 1469.16 241.35 1469.11ZM625.851 1460.96H244.022L142.553 1146.31H524.382L625.851 1460.96Z" fill="#231F20"/>
<path d="M209.687 1243.91H514.896C515.305 1243.92 515.712 1243.85 516.092 1243.7C516.473 1243.55 516.82 1243.32 517.112 1243.04C517.404 1242.75 517.637 1242.41 517.796 1242.03C517.954 1241.66 518.036 1241.25 518.036 1240.84C518.018 1240.02 517.68 1239.24 517.093 1238.66C516.506 1238.09 515.717 1237.77 514.896 1237.77H209.687C208.877 1237.78 208.105 1238.11 207.533 1238.69C206.96 1239.26 206.631 1240.03 206.614 1240.84C206.614 1241.66 206.938 1242.44 207.514 1243.01C208.09 1243.59 208.872 1243.91 209.687 1243.91V1243.91Z" fill="#D1D3D4"/>
<path d="M223.247 1289.88H285.571C286.386 1289.88 287.168 1289.55 287.744 1288.98C288.32 1288.4 288.644 1287.62 288.644 1286.8C288.627 1285.99 288.298 1285.22 287.725 1284.65C287.153 1284.08 286.381 1283.75 285.571 1283.73H223.247C222.437 1283.75 221.666 1284.08 221.093 1284.65C220.52 1285.22 220.191 1285.99 220.174 1286.8C220.174 1287.62 220.498 1288.4 221.074 1288.98C221.65 1289.55 222.432 1289.88 223.247 1289.88V1289.88Z" fill="#D1D3D4"/>
<path d="M329.459 1289.88H405.945C406.76 1289.88 407.542 1289.55 408.118 1288.98C408.694 1288.4 409.018 1287.62 409.018 1286.8C409.001 1285.99 408.672 1285.22 408.099 1284.65C407.526 1284.08 406.755 1283.75 405.945 1283.73H329.459C328.644 1283.73 327.863 1284.05 327.287 1284.63C326.71 1285.21 326.387 1285.99 326.387 1286.8C326.377 1287.21 326.451 1287.61 326.602 1287.99C326.753 1288.37 326.979 1288.71 327.266 1289C327.553 1289.28 327.896 1289.51 328.273 1289.66C328.65 1289.81 329.053 1289.88 329.459 1289.88V1289.88Z" fill="#D1D3D4"/>
<path d="M456.713 1289.88H528.59C529.405 1289.88 530.186 1289.55 530.763 1288.98C531.339 1288.4 531.663 1287.62 531.663 1286.8C531.646 1285.99 531.316 1285.22 530.744 1284.65C530.171 1284.08 529.399 1283.75 528.59 1283.73H456.78C455.97 1283.75 455.199 1284.08 454.626 1284.65C454.053 1285.22 453.724 1285.99 453.707 1286.8C453.707 1287.61 454.021 1288.38 454.583 1288.95C455.145 1289.53 455.91 1289.86 456.713 1289.88Z" fill="#D1D3D4"/>
<path d="M238.277 1339.84H468.47C468.876 1339.85 469.28 1339.78 469.657 1339.63C470.034 1339.48 470.376 1339.25 470.663 1338.97C470.95 1338.68 471.176 1338.34 471.327 1337.96C471.479 1337.58 471.552 1337.18 471.543 1336.77C471.46 1336.02 471.1 1335.32 470.533 1334.81C469.965 1334.31 469.23 1334.03 468.47 1334.03H238.143C237.334 1334.05 236.562 1334.38 235.99 1334.95C235.417 1335.52 235.088 1336.3 235.071 1337.11C235.155 1337.89 235.534 1338.6 236.13 1339.11C236.726 1339.62 237.494 1339.88 238.277 1339.84V1339.84Z" fill="#D1D3D4"/>
<path d="M511.222 1339.84H543.487C543.893 1339.85 544.296 1339.78 544.673 1339.63C545.05 1339.48 545.392 1339.25 545.68 1338.97C545.967 1338.68 546.193 1338.34 546.344 1337.96C546.495 1337.58 546.568 1337.18 546.559 1336.77C546.559 1335.96 546.236 1335.18 545.659 1334.6C545.083 1334.02 544.302 1333.7 543.487 1333.7H511.222C510.412 1333.72 509.641 1334.05 509.068 1334.62C508.495 1335.19 508.166 1335.96 508.149 1336.77C508.149 1337.59 508.473 1338.37 509.049 1338.94C509.626 1339.52 510.407 1339.84 511.222 1339.84V1339.84Z" fill="#D1D3D4"/>
<path d="M258.117 1389.88H340.08C340.826 1389.77 341.507 1389.4 342 1388.83C342.492 1388.26 342.763 1387.53 342.763 1386.77C342.763 1386.02 342.492 1385.29 342 1384.72C341.507 1384.15 340.826 1383.78 340.08 1383.67H258.117C257.371 1383.78 256.69 1384.15 256.197 1384.72C255.705 1385.29 255.434 1386.02 255.434 1386.77C255.434 1387.53 255.705 1388.26 256.197 1388.83C256.69 1389.4 257.371 1389.77 258.117 1389.88V1389.88Z" fill="#D1D3D4"/>
<path d="M403.407 1389.88H563.326C564.072 1389.77 564.753 1389.4 565.245 1388.83C565.738 1388.26 566.009 1387.53 566.009 1386.77C566.009 1386.02 565.738 1385.29 565.245 1384.72C564.753 1384.15 564.072 1383.78 563.326 1383.67H403.407C402.661 1383.78 401.98 1384.15 401.487 1384.72C400.995 1385.29 400.724 1386.02 400.724 1386.77C400.724 1387.53 400.995 1388.26 401.487 1388.83C401.98 1389.4 402.661 1389.77 403.407 1389.88V1389.88Z" fill="#D1D3D4"/>
<path d="M602.233 1102.27C603.279 1102.18 604.251 1101.7 604.948 1100.92C605.644 1100.13 606.012 1099.11 605.974 1098.06C604.237 1064.06 618.332 1050.16 618.466 1050.03C619.196 1049.29 619.605 1048.29 619.605 1047.26C619.605 1046.22 619.196 1045.22 618.466 1044.48C618.105 1044.11 617.674 1043.82 617.198 1043.62C616.722 1043.42 616.21 1043.32 615.694 1043.32C615.177 1043.32 614.666 1043.42 614.189 1043.62C613.713 1043.82 613.282 1044.11 612.921 1044.48C612.253 1045.09 595.954 1060.65 597.891 1098.66C597.993 1099.71 598.506 1100.68 599.32 1101.36C600.133 1102.04 601.18 1102.36 602.233 1102.27V1102.27Z" fill="#231F20"/>
<path d="M556.982 1806.1H880.494C881.116 1806.1 881.73 1805.95 882.286 1805.68C882.843 1805.4 883.327 1804.99 883.7 1804.5C884.089 1804 884.348 1803.42 884.454 1802.8C884.559 1802.18 884.506 1801.55 884.302 1800.96L797.996 1533.74C797.742 1532.95 797.243 1532.25 796.571 1531.76C795.899 1531.27 795.088 1531 794.255 1531H470.943C470.321 1531 469.707 1531.14 469.151 1531.42C468.594 1531.7 468.11 1532.11 467.737 1532.6C467.374 1533.11 467.137 1533.69 467.044 1534.31C466.951 1534.92 467.006 1535.55 467.202 1536.14L553.508 1803.36C553.73 1804.12 554.183 1804.8 554.806 1805.29C555.429 1805.78 556.189 1806.06 556.982 1806.1V1806.1ZM875.083 1798.22H559.854L476.154 1538.62H791.583L875.083 1798.22Z" fill="#231F20"/>
<path d="M487.71 1590.05H810.822C811.867 1590.05 812.869 1589.64 813.608 1588.9C814.347 1588.16 814.763 1587.16 814.763 1586.11C814.763 1585.07 814.347 1584.07 813.608 1583.33C812.869 1582.59 811.867 1582.17 810.822 1582.17H487.71C486.665 1582.17 485.662 1582.59 484.923 1583.33C484.184 1584.07 483.769 1585.07 483.769 1586.11C483.769 1587.16 484.184 1588.16 484.923 1588.9C485.662 1589.64 486.665 1590.05 487.71 1590.05V1590.05Z" fill="#231F20"/>
<path d="M689.646 1613.37L677.823 1610.16L671.677 1608.76C670.552 1608.37 669.319 1608.44 668.245 1608.96C667.171 1609.47 666.34 1610.38 665.932 1611.5C665.064 1614.1 664.463 1616.91 663.728 1619.58C663.434 1621.05 662.986 1622.48 662.392 1623.86C662.174 1624.35 661.853 1624.79 661.449 1625.15C661.046 1625.51 660.57 1625.77 660.054 1625.93C655.645 1626.86 651.103 1627.6 646.694 1628.27C645.81 1628.32 644.925 1628.19 644.096 1627.88C643.267 1627.57 642.514 1627.09 641.884 1626.46L632.733 1618.31C631.57 1617.26 630.292 1616.34 628.925 1615.57C627.964 1615.06 626.846 1614.91 625.785 1615.17C620.32 1617.57 615.322 1620.92 611.023 1625.06C610.366 1625.75 609.973 1626.65 609.912 1627.61C609.851 1628.56 610.126 1629.5 610.689 1630.27C612.693 1633.95 614.63 1637.62 616.701 1641.23C617.533 1642.33 618.021 1643.65 618.104 1645.03C618.187 1646.41 617.862 1647.78 617.168 1648.98C615.365 1652.05 613.695 1655.26 611.891 1658.33C611.549 1658.91 611.046 1659.39 610.442 1659.7C609.838 1660 609.159 1660.13 608.484 1660.07H600.936H594.256C591.985 1660.07 590.448 1661.2 590.315 1663.47C589.847 1669.02 589.446 1674.56 589.246 1680.17C589.276 1681.34 589.646 1682.48 590.311 1683.44C590.975 1684.4 591.905 1685.14 592.987 1685.59C595.926 1687.05 598.999 1688.19 602.005 1689.53C603.407 1690.13 604.877 1690.8 606.213 1691.53C607.131 1691.95 607.954 1692.55 608.631 1693.3C609.309 1694.04 609.827 1694.92 610.154 1695.87C611.557 1699.75 612.893 1703.69 614.429 1707.56C614.925 1708.58 615.108 1709.72 614.953 1710.84C614.798 1711.95 614.314 1713 613.561 1713.84L606.347 1721.86C605.404 1722.81 604.876 1724.1 604.876 1725.43C604.876 1726.77 605.404 1728.06 606.347 1729.01C609.82 1733.48 613.027 1737.89 616.968 1742.37C617.774 1743.71 619.024 1744.72 620.501 1745.24C621.978 1745.75 623.588 1745.73 625.051 1745.17C627.322 1744.44 629.526 1743.44 631.731 1742.64C633.935 1741.83 635.004 1741.5 636.674 1741.03C637.45 1740.85 638.255 1740.83 639.038 1740.98C639.82 1741.13 640.563 1741.45 641.216 1741.9C645.024 1744.31 648.832 1746.71 652.572 1749.18C653.576 1749.81 654.43 1750.65 655.076 1751.64C655.722 1752.64 656.144 1753.76 656.313 1754.93C656.647 1757.53 656.914 1760.14 657.315 1762.68C657.524 1764.32 657.836 1765.95 658.25 1767.55C658.493 1768.73 659.069 1769.81 659.911 1770.66C660.752 1771.51 661.823 1772.11 662.993 1772.36L678.958 1776.31C679.76 1776.31 680.628 1776.31 681.43 1776.31C682.273 1776.42 683.128 1776.22 683.84 1775.76C684.551 1775.29 685.071 1774.58 685.304 1773.77L687.909 1764.08V1763.35C688.121 1761.93 688.841 1760.64 689.936 1759.72C691.03 1758.79 692.424 1758.3 693.855 1758.33C696.861 1758.33 699.733 1757.4 702.672 1756.93C704.136 1756.71 705.631 1756.85 707.028 1757.34C708.425 1757.83 709.682 1758.65 710.688 1759.74C713.561 1762.41 716.433 1765.08 719.372 1767.62C722.312 1770.16 724.316 1770.63 727.188 1768.82C731.263 1766.22 735.271 1763.48 739.212 1760.67C741.35 1759.14 741.617 1757.2 740.214 1754.39C738.811 1751.59 737.074 1748.65 735.471 1745.78C731.998 1739.56 731.931 1738.56 734.87 1733.35L738.41 1727.34C738.971 1726.18 739.915 1725.24 741.083 1724.7C742.251 1724.15 743.572 1724.02 744.823 1724.33C747.829 1724.33 750.902 1724.87 753.908 1724.93C755.35 1724.88 756.783 1724.68 758.183 1724.33C758.875 1724.3 759.528 1724 760.011 1723.51C760.495 1723.01 760.772 1722.35 760.788 1721.66C760.788 1716.32 761.39 1710.97 761.657 1705.69C761.721 1704.94 761.721 1704.18 761.657 1703.42C761.522 1702.45 761.137 1701.54 760.539 1700.76C759.942 1699.99 759.152 1699.39 758.25 1699.01L747.695 1694.4L744.556 1692.8C743.695 1692.39 742.925 1691.82 742.293 1691.11C741.661 1690.39 741.181 1689.56 740.882 1688.66C739.613 1684.92 738.277 1681.11 736.941 1677.37C736.51 1676.41 736.381 1675.33 736.572 1674.3C736.762 1673.26 737.264 1672.3 738.009 1671.56L744.689 1664.41C747.295 1661.2 747.362 1659.66 744.222 1655.72C741.082 1651.78 737.542 1646.97 733.534 1642.7C732.856 1641.6 731.816 1640.78 730.594 1640.38C729.373 1639.98 728.049 1640.02 726.854 1640.49C723.781 1641.56 720.775 1642.7 717.836 1644.03C716.319 1644.69 714.653 1644.91 713.017 1644.69C711.381 1644.46 709.837 1643.8 708.551 1642.76C705.211 1640.43 701.871 1638.29 698.464 1636.08C697.761 1635.65 697.155 1635.08 696.684 1634.4C696.213 1633.72 695.886 1632.95 695.725 1632.14C695.124 1628.47 694.589 1624.86 693.988 1621.25C693.754 1618.79 692.775 1616.46 691.183 1614.57L689.646 1613.37ZM661.791 1720.79C643.554 1709.7 635.405 1688.19 643.22 1672.09C649.9 1658.73 669.94 1652.05 689.98 1663.94C707.816 1674.83 716.233 1696.54 708.618 1712.11C699.399 1730.48 675.819 1730.41 661.791 1720.79V1720.79Z" fill="#231F20"/>
<path d="M766.055 393.494H1149.42C1150.03 393.486 1150.64 393.337 1151.18 393.059C1151.73 392.781 1152.2 392.382 1152.57 391.891C1152.94 391.401 1153.19 390.833 1153.3 390.231C1153.42 389.628 1153.39 389.008 1153.23 388.417L1113.15 253.807C1112.91 252.984 1112.41 252.263 1111.72 251.755C1111.03 251.248 1110.2 250.983 1109.34 251.001H725.975C725.357 250.996 724.747 251.136 724.193 251.409C723.64 251.683 723.159 252.083 722.788 252.577C722.418 253.071 722.168 253.646 722.06 254.254C721.952 254.862 721.989 255.487 722.167 256.078L762.247 390.689C762.483 391.511 762.984 392.232 763.673 392.74C764.362 393.247 765.199 393.513 766.055 393.494V393.494ZM1144.14 385.344H768.994L731.252 258.416H1106.33L1144.14 385.344Z" fill="#231F20"/>
<path d="M784.558 353.278H1095.85C1096.46 353.278 1097.06 353.133 1097.61 352.854C1098.15 352.576 1098.63 352.171 1098.99 351.675C1099.36 351.185 1099.61 350.618 1099.72 350.016C1099.84 349.413 1099.82 348.793 1099.65 348.201L1090.1 316.202C1089.85 315.391 1089.34 314.682 1088.66 314.177C1087.97 313.673 1087.14 313.399 1086.29 313.396H774.739C774.127 313.401 773.525 313.549 772.98 313.827C772.435 314.105 771.962 314.507 771.599 314.999C771.241 315.494 771 316.064 770.896 316.667C770.792 317.269 770.827 317.887 770.998 318.473L780.55 350.472C780.794 351.33 781.325 352.077 782.055 352.588C782.786 353.099 783.669 353.343 784.558 353.278V353.278ZM1090.57 345.262H787.497L780.35 321.145H1083.35L1090.57 345.262Z" fill="#231F20"/>
<path d="M942.473 349.337L932.921 317.338H1086.29L1095.85 349.337H942.473Z" fill="#231F20"/>
<path d="M951.959 288.478H1075.34C1076.08 288.368 1076.77 287.994 1077.26 287.424C1077.75 286.854 1078.02 286.125 1078.02 285.372C1078.02 284.618 1077.75 283.89 1077.26 283.319C1076.77 282.749 1076.08 282.375 1075.34 282.265H952.159C951.414 282.375 950.733 282.749 950.24 283.319C949.748 283.89 949.477 284.618 949.477 285.372C949.477 286.125 949.748 286.854 950.24 287.424C950.733 287.994 951.414 288.368 952.159 288.478H951.959Z" fill="#D1D3D4"/>
</g>
<defs>
<clipPath id="clip0_15_34">
<rect width="1906" height="2014" fill="white" transform="matrix(-1 0 0 1 1906 0)"/>
</clipPath>
</defs>
</svg>
