<svg width="1569" height="1569" viewBox="0 0 1569 1569" fill="none" xmlns="http://www.w3.org/2000/svg">
<g clip-path="url(#clip0_28_2)">
<mask id="mask0_28_2" style="mask-type:alpha" maskUnits="userSpaceOnUse" x="0" y="0" width="1569" height="1569">
<circle cx="784.5" cy="784.5" r="784.5" fill="#D9D9D9"/>
</mask>
<g mask="url(#mask0_28_2)">
<rect x="-122" y="-141" width="1877" height="2035" fill="#BFF5C1"/>
<path d="M-77.3301 1216.3V1273.27L923.762 1527.95L2125.4 1086.36V1040.86L-77.3301 1216.3Z" fill="white"/>
<path d="M923.762 1531.26C923.496 1531.32 923.219 1531.32 922.953 1531.26L-78.2075 1276.58C-78.9391 1276.38 -79.5867 1275.96 -80.0504 1275.36C-80.514 1274.76 -80.7678 1274.03 -80.7725 1273.27V1216.23C-80.7584 1215.39 -80.4326 1214.59 -79.8586 1213.98C-79.2846 1213.37 -78.5035 1212.99 -77.6675 1212.92L2125.06 1037.42C2125.52 1037.39 2125.99 1037.44 2126.43 1037.59C2126.87 1037.74 2127.28 1037.97 2127.62 1038.28C2127.97 1038.59 2128.25 1038.97 2128.45 1039.39C2128.65 1039.81 2128.76 1040.27 2128.77 1040.73V1086.23C2128.76 1086.92 2128.55 1087.59 2128.15 1088.15C2127.75 1088.72 2127.19 1089.15 2126.55 1089.4L924.91 1531.26C924.531 1531.33 924.142 1531.33 923.762 1531.26ZM-74.0225 1270.64L923.56 1524.51L2122.02 1084.13V1044.58L-74.0225 1219.4V1270.64Z" fill="#231F20"/>
<path d="M1156.97 656.177C1157.92 653.14 1116.47 604.202 1116.47 604.202C1116.47 604.202 1105.74 557.356 1086.1 526.306C1066.46 495.255 1041.75 461.707 1014.48 463.597C987.212 465.487 929.567 459.142 920.725 481.958C911.882 504.773 951.167 578.889 976.48 604.202C1001.79 629.514 1046.34 648.55 1046.34 648.55L1082.25 713.215C1082.25 713.215 1145.5 692.29 1156.97 656.177Z" fill="white"/>
<path d="M1082.18 716.658C1081.57 716.645 1080.97 716.477 1080.44 716.17C1079.91 715.863 1079.47 715.427 1079.15 714.903L1043.78 651.317C1036.55 648.145 997.54 630.257 973.915 606.699C950.29 583.141 907.36 506.528 917.417 480.675C925.18 460.425 962.642 460.425 992.747 460.425C1000.71 460.425 1008.27 460.425 1014.14 459.953C1043.1 457.927 1068.14 491.34 1088.93 524.281C1107.5 553.576 1118.03 595.832 1119.65 602.447C1161.83 652.262 1160.96 654.895 1160.15 657.055C1148.33 694.45 1085.9 715.511 1083.2 716.321C1082.88 716.485 1082.54 716.599 1082.18 716.658ZM1016.64 466.905H1014.68C1008.54 467.378 1000.85 467.378 992.747 467.378C966.22 467.378 929.972 467.378 923.897 483.105C915.73 504.166 954.205 576.931 978.842 601.637C1003.48 626.342 1047.15 645.04 1047.62 645.242C1048.33 645.543 1048.92 646.064 1049.31 646.727L1083.8 708.761C1095.68 704.373 1143.14 685.27 1153.33 655.975C1150.49 650.71 1131.46 627.22 1113.77 606.362C1113.41 605.935 1113.16 605.425 1113.03 604.877C1113.03 604.404 1102.16 558.166 1083.06 527.993C1063.96 497.82 1041.01 466.973 1016.64 466.973V466.905Z" fill="#231F20"/>
<path d="M943.88 352.775L830.972 410.255L956.956 657.731L1069.86 600.25L943.88 352.775Z" fill="#231F20"/>
<path d="M956.972 661.172C956.616 661.243 956.249 661.243 955.892 661.172C955.063 660.89 954.367 660.314 953.935 659.552L828.25 411.824C828.04 411.436 827.91 411.009 827.868 410.569C827.825 410.129 827.872 409.686 828.004 409.264C828.136 408.842 828.351 408.452 828.637 408.115C828.923 407.778 829.273 407.501 829.667 407.302L942.325 349.994C943.122 349.593 944.045 349.525 944.892 349.803C945.74 350.081 946.442 350.684 946.847 351.479L1072.87 599.004C1073.21 599.826 1073.21 600.747 1072.87 601.569C1072.58 602.416 1071.98 603.118 1071.18 603.527L958.457 660.497C958.031 660.851 957.518 661.084 956.972 661.172ZM835.472 411.757L958.39 653.275L1065.31 598.869L942.392 357.351L835.472 411.757Z" fill="#231F20"/>
<path d="M1020.76 476.76C1005.61 477.054 990.666 480.287 976.75 486.278C971.539 488.048 966.994 491.369 963.723 495.795C961.624 500.093 961.2 505.018 962.536 509.611C963.871 514.203 966.869 518.134 970.945 520.636C975.118 522.977 979.725 524.442 984.484 524.941C989.242 525.44 994.053 524.963 998.62 523.538C992.478 525.968 985.12 530.288 985.525 536.633C985.93 542.978 993.49 546.556 999.835 546.218C1006.18 545.881 1012.39 543.113 1018.74 543.181C1016.65 544.619 1014.94 546.545 1013.76 548.791C1012.59 551.038 1011.98 553.538 1011.99 556.074C1012.02 561.196 1013.19 566.247 1015.43 570.856C1016.49 573.888 1018.35 576.572 1020.83 578.619C1024.46 580.717 1028.68 581.571 1032.84 581.049C1051.51 580.46 1069.99 577.186 1087.72 571.329" fill="white"/>
<path d="M1030.75 584.559C1026.54 584.84 1022.35 583.75 1018.8 581.454C1015.73 579.069 1013.39 575.863 1012.05 572.206C1009.61 567.152 1008.32 561.619 1008.27 556.006C1008.36 553.208 1009.01 550.455 1010.16 547.906H1009.22C1006.17 548.707 1003.05 549.227 999.902 549.459C994.879 549.793 989.921 548.173 986.065 544.936C984.843 543.896 983.848 542.617 983.14 541.177C982.431 539.738 982.026 538.168 981.947 536.566C981.805 533.539 982.819 530.571 984.782 528.263C979.154 528.04 973.684 526.34 968.92 523.336C964.105 520.325 960.585 515.627 959.05 510.159C957.515 504.691 958.073 498.848 960.617 493.77C964.252 488.698 969.369 484.878 975.265 482.835C989.652 476.728 1005.07 473.407 1020.69 473.048C1021.16 473.02 1021.62 473.088 1022.06 473.25C1022.5 473.411 1022.9 473.661 1023.24 473.985C1023.57 474.308 1023.84 474.698 1024.02 475.129C1024.19 475.56 1024.28 476.024 1024.27 476.49C1024.27 477.409 1023.91 478.292 1023.27 478.949C1022.62 479.605 1021.75 479.983 1020.83 480C1006.09 480.357 991.543 483.494 977.965 489.248C973.44 490.786 969.471 493.628 966.557 497.415C964.94 500.96 964.671 504.973 965.802 508.701C966.933 512.43 969.386 515.617 972.7 517.666C976.487 519.691 980.637 520.949 984.911 521.366C989.185 521.783 993.5 521.351 997.607 520.096C998.466 519.863 999.382 519.972 1000.16 520.4C1000.94 520.828 1001.53 521.541 1001.79 522.391C1002.06 523.233 1002 524.147 1001.63 524.948C1001.25 525.749 1000.59 526.378 999.767 526.711C992.41 529.613 988.765 532.921 988.9 536.363C988.949 537.042 989.136 537.703 989.449 538.306C989.762 538.91 990.196 539.443 990.722 539.873C993.219 541.871 996.375 542.859 999.565 542.641C1002.28 542.414 1004.97 541.939 1007.6 541.223C1011.22 540.279 1014.93 539.735 1018.67 539.603C1019.43 539.623 1020.17 539.891 1020.76 540.366C1021.36 540.841 1021.78 541.497 1021.97 542.236C1022.18 542.959 1022.14 543.729 1021.86 544.426C1021.58 545.123 1021.07 545.707 1020.42 546.084C1018.8 547.204 1017.47 548.708 1016.56 550.462C1015.66 552.216 1015.2 554.167 1015.22 556.141C1015.3 560.817 1016.38 565.421 1018.4 569.641C1019.26 572.098 1020.72 574.301 1022.65 576.054C1025.69 577.607 1029.12 578.196 1032.5 577.741C1050.87 577.194 1069.06 573.988 1086.5 568.224C1087.4 567.937 1088.37 568.018 1089.21 568.449C1090.04 568.879 1090.67 569.624 1090.96 570.519C1091.25 571.414 1091.17 572.386 1090.73 573.222C1090.3 574.057 1089.56 574.687 1088.66 574.974C1070.6 580.936 1051.78 584.278 1032.77 584.896L1030.75 584.559Z" fill="#231F20"/>
<path d="M150.955 420.262C150.955 420.262 318.153 487.763 429.663 460.087C541.173 432.412 639.992 367.746 672.662 420.262C705.332 472.778 715.188 1162.03 715.188 1162.03L275.088 1239.52L161.08 614.664L150.955 420.262Z" fill="#231F20"/>
<path d="M275.088 1242.89C274.304 1242.88 273.548 1242.6 272.947 1242.09C272.346 1241.59 271.934 1240.9 271.78 1240.13L157.773 615.272L147.58 420.397C147.549 419.832 147.662 419.269 147.911 418.761C148.159 418.253 148.533 417.817 148.998 417.494C149.48 417.216 150.027 417.069 150.584 417.069C151.141 417.069 151.688 417.216 152.17 417.494C153.858 418.102 319.773 484.455 428.92 457.117C461.849 448.342 494.294 437.842 526.12 425.662C596.253 400.214 651.603 380.099 675.835 418.912C708.91 471.63 718.495 1134.42 718.9 1162.43C718.9 1163.23 718.624 1164 718.12 1164.62C717.615 1165.23 716.913 1165.65 716.133 1165.81L275.695 1242.83L275.088 1242.89ZM154.533 425.257L164.455 614.259L277.788 1235.27L712.083 1158.79C711.34 1110.26 701.08 471.023 670.098 421.612C648.7 387.862 595.848 406.829 528.348 431.265C496.292 443.502 463.623 454.068 430.473 462.922C329.898 488.505 183.085 436.057 154.533 425.257Z" fill="#231F20"/>
<path d="M657.138 543.721C657.138 543.721 512.688 524.686 459.43 633.024C406.173 741.363 409.75 1260.17 409.75 1260.17L874.15 1173.5C874.15 1173.5 892.78 942.583 944.08 853.28C995.38 763.976 969.393 692.83 944.08 661.307C922.75 635.05 774.925 529.681 657.138 543.721Z" fill="#2D4B4B"/>
<path d="M682.855 653.005L752.515 1023.92L855.588 720.506L682.855 653.005Z" fill="#231F20"/>
<path d="M752.582 1027.23C751.844 1027.19 751.14 1026.91 750.587 1026.41C750.035 1025.92 749.667 1025.26 749.545 1024.53L679.75 653.747C679.626 653.154 679.667 652.538 679.869 651.967C680.072 651.395 680.427 650.89 680.897 650.507C681.361 650.125 681.918 649.873 682.511 649.778C683.105 649.684 683.712 649.749 684.272 649.967L857.005 717.468C857.812 717.772 858.47 718.38 858.835 719.162C859.201 719.944 859.247 720.838 858.962 721.653L755.957 1025.41C755.646 1026.02 755.157 1026.52 754.554 1026.84C753.951 1027.17 753.263 1027.3 752.582 1027.23ZM687.242 658.405L753.46 1010.69L851.402 722.463L687.242 658.405Z" fill="#231F20"/>
<path d="M746.845 718.683L769.188 779.434C769.188 779.434 734.898 930.028 735.438 932.593L752.583 1023.85L783.093 934.011L783.835 772.009L811.51 722.598L746.845 718.683Z" fill="white"/>
<path d="M752.583 1027.3C751.84 1027.25 751.133 1026.96 750.571 1026.47C750.01 1025.99 749.625 1025.33 749.478 1024.6C749.478 1024.6 732.873 935.968 732.333 933.403C732.333 932.458 731.725 930.163 766.083 779.771L744.078 719.898C743.887 719.372 743.831 718.806 743.913 718.252C743.996 717.698 744.215 717.174 744.55 716.726C744.889 716.282 745.33 715.928 745.835 715.693C746.341 715.458 746.896 715.349 747.453 715.376L812.05 719.223C812.621 719.23 813.179 719.39 813.666 719.687C814.153 719.984 814.551 720.407 814.818 720.911C815.102 721.416 815.251 721.985 815.251 722.564C815.251 723.144 815.102 723.713 814.818 724.218L787.818 772.886L787.075 934.146C787.112 934.505 787.112 934.867 787.075 935.226L755.755 1025C755.522 1025.66 755.094 1026.23 754.527 1026.64C753.96 1027.05 753.282 1027.28 752.583 1027.3ZM739.083 932.458C740.095 937.791 749.275 986.931 753.73 1010.62L779.92 933.538L780.663 771.874C780.683 771.303 780.846 770.746 781.135 770.254L806.178 725.568L752.178 722.396L772.765 778.354C772.966 778.968 772.966 779.63 772.765 780.244C759.333 838.025 739.69 925.303 738.813 932.458H739.083Z" fill="#231F20"/>
<path d="M275.087 1239.52C275.087 1239.52 328.345 615.744 226.96 470.753C125.575 325.761 67.3223 527.521 62.2598 642.002C57.1973 756.484 138.265 1222.51 138.265 1222.51L275.087 1239.52Z" fill="#231F20"/>
<path d="M275.087 1242.89H274.75L137.928 1225.95C137.217 1225.88 136.55 1225.57 136.027 1225.08C135.504 1224.6 135.152 1223.95 135.025 1223.25C134.215 1218.53 54.025 755.471 58.9525 641.867C62.5975 558.841 92.7025 434.64 147.917 418.574C173.702 411.082 201.242 428.024 229.795 468.862C272.252 529.613 293.312 678.115 292.502 909.508C291.827 1081.77 278.665 1238.24 278.53 1239.79C278.478 1240.64 278.097 1241.44 277.468 1242.02C276.839 1242.6 276.01 1242.91 275.155 1242.89H275.087ZM141.167 1219.61L272.05 1235.74C276.1 1185.38 319.84 609.467 224.193 472.98C197.193 434.707 172.42 418.979 149.943 425.324C98.5075 440.31 69.3475 563.701 65.8375 642.475C60.775 750.746 134.822 1182.89 141.167 1219.61Z" fill="#231F20"/>
<path d="M1446.21 937.656L-77.3301 1216.3L915.19 1455.72L2125.4 1040.86L1446.21 937.656Z" fill="white"/>
<path d="M915.19 1459.23H914.38L-77.8699 1219.81C-78.6362 1219.6 -79.3108 1219.14 -79.7874 1218.51C-80.2641 1217.87 -80.5156 1217.09 -80.5024 1216.3C-80.4837 1215.51 -80.1913 1214.74 -79.6746 1214.14C-79.158 1213.54 -78.4489 1213.13 -77.6674 1212.99L1445.94 934.348C1446.32 934.28 1446.71 934.28 1447.09 934.348L2126.21 1037.56C2126.99 1037.68 2127.7 1038.05 2128.24 1038.63C2128.78 1039.2 2129.11 1039.94 2129.18 1040.73C2129.25 1041.51 2129.05 1042.28 2128.62 1042.93C2128.19 1043.58 2127.56 1044.07 2126.82 1044.31L916.338 1459.03C915.969 1459.16 915.581 1459.23 915.19 1459.23ZM-60.5899 1216.7L914.988 1452.08L2110.75 1042.21L1446.21 940.963L-60.5899 1216.7Z" fill="#231F20"/>
<path d="M921.265 1136.45C921.265 1136.45 1252.01 1032.16 1257.68 1032.16C1263.35 1032.16 1681.52 1103.84 1681.52 1103.84L1334.5 1222.64L921.265 1136.45Z" fill="white"/>
<path d="M1334.5 1226.15H1333.82L920.59 1139.75C919.837 1139.59 919.158 1139.19 918.658 1138.6C918.158 1138.02 917.864 1137.28 917.822 1136.51C917.773 1135.74 917.987 1134.97 918.428 1134.34C918.868 1133.7 919.511 1133.23 920.252 1133C997.945 1108.5 1251.88 1028.51 1257.75 1028.51C1263.62 1028.51 1639.33 1092.98 1682.12 1100.33C1682.93 1100.41 1683.67 1100.77 1684.24 1101.35C1684.8 1101.93 1685.14 1102.68 1685.21 1103.48C1685.27 1104.29 1685.05 1105.09 1684.59 1105.74C1684.12 1106.4 1683.44 1106.87 1682.66 1107.08L1335.51 1225.88C1335.19 1226.03 1334.85 1226.12 1334.5 1226.15ZM935.237 1135.77L1334.3 1219.07L1667.68 1104.99C1521.61 1079.95 1265.04 1036.14 1257.75 1035.6C1249.65 1036.88 1033.04 1104.86 935.035 1135.77H935.237Z" fill="#231F20"/>
<path d="M1381.01 1180.25H1380.54L1157.79 1148.6C1157.05 1148.5 1156.37 1148.16 1155.84 1147.64C1155.32 1147.11 1154.98 1146.43 1154.88 1145.69C1154.8 1144.96 1154.95 1144.22 1155.32 1143.58C1155.68 1142.93 1156.24 1142.42 1156.91 1142.12L1348.41 1060.71C1348.98 1060.58 1349.58 1060.58 1350.16 1060.71L1565.42 1090.95C1566.25 1090.95 1567.05 1091.25 1567.67 1091.8C1568.3 1092.34 1568.7 1093.09 1568.82 1093.92C1568.93 1094.74 1568.75 1095.57 1568.3 1096.27C1567.85 1096.96 1567.16 1097.47 1566.36 1097.7L1382.29 1180.46C1381.85 1180.48 1381.42 1180.41 1381.01 1180.25ZM1170.81 1143.53L1380.47 1173.5L1553 1095.88L1350.5 1067.39L1170.81 1143.53Z" fill="#D1D3D4"/>
<path d="M1334.3 1222.64L919.375 1173.71L921.265 1136.45L1334.3 1191.8V1222.64Z" fill="white"/>
<path d="M1334.5 1226.15H1334.09L919.172 1177.28C918.714 1177.25 918.266 1177.12 917.857 1176.91C917.447 1176.71 917.084 1176.42 916.788 1176.06C916.492 1175.71 916.27 1175.3 916.135 1174.86C915.999 1174.42 915.954 1173.96 916 1173.5L917.89 1136.24C917.89 1135.76 917.999 1135.29 918.21 1134.85C918.42 1134.42 918.726 1134.04 919.105 1133.75C919.477 1133.43 919.908 1133.2 920.372 1133.06C920.836 1132.92 921.323 1132.88 921.805 1132.94L1334.5 1188.35C1335.34 1188.45 1336.12 1188.86 1336.68 1189.49C1337.24 1190.13 1337.54 1190.95 1337.54 1191.8V1222.64C1337.54 1223.14 1337.44 1223.63 1337.25 1224.08C1337.05 1224.54 1336.76 1224.94 1336.39 1225.28C1335.85 1225.74 1335.2 1226.04 1334.5 1226.15ZM922.75 1170.67L1330.58 1218.73V1194.83L924.302 1140.43L922.75 1170.67Z" fill="#231F20"/>
<path d="M1334.3 1222.64L1410.37 670.42L1760.02 652.667L1681.52 1103.84L1334.3 1222.64Z" fill="white"/>
<path d="M1334.5 1226.15C1333.71 1226.15 1332.94 1225.86 1332.34 1225.34C1331.88 1224.96 1331.52 1224.48 1331.29 1223.92C1331.07 1223.37 1330.99 1222.77 1331.06 1222.17L1407.13 669.947C1407.21 669.135 1407.58 668.379 1408.18 667.821C1408.78 667.262 1409.55 666.939 1410.37 666.91L1759.75 649.157C1760.27 649.139 1760.79 649.238 1761.27 649.447C1761.75 649.655 1762.18 649.968 1762.52 650.363C1762.86 650.758 1763.11 651.224 1763.25 651.728C1763.39 652.231 1763.42 652.76 1763.33 653.275L1684.76 1104.45C1684.66 1105.07 1684.4 1105.65 1683.99 1106.13C1683.59 1106.6 1683.06 1106.96 1682.46 1107.15L1335.31 1225.95C1335.05 1226.05 1334.78 1226.12 1334.5 1226.15ZM1413.41 673.998L1338.55 1217.51L1678.75 1101.21L1756.17 656.38L1413.41 673.998Z" fill="#231F20"/>
<path d="M1153.94 1123.55H1153.6L1086.1 1115.93C1085.34 1115.84 1084.64 1115.5 1084.1 1114.96C1083.56 1114.42 1083.22 1113.71 1083.13 1112.96C1083.02 1112.2 1083.18 1111.43 1083.57 1110.78C1083.97 1110.13 1084.57 1109.63 1085.29 1109.38L1202.47 1066.58C1203.03 1066.48 1203.6 1066.48 1204.16 1066.58L1269.77 1076.77C1270.51 1076.89 1271.19 1077.26 1271.71 1077.81C1272.22 1078.36 1272.54 1079.06 1272.6 1079.81C1272.66 1080.56 1272.48 1081.31 1272.08 1081.94C1271.68 1082.58 1271.08 1083.06 1270.38 1083.32L1155.29 1123.49C1154.85 1123.6 1154.39 1123.63 1153.94 1123.55ZM1100.88 1110.8L1153.6 1116.74L1255.19 1081.23L1203.75 1073.26L1100.88 1110.8Z" fill="#D1D3D4"/>
<path d="M472.728 610.952C413.596 701.21 369.932 800.699 343.533 905.323C314.44 1020.82 307.42 1127.13 353.05 1155.68C398.68 1184.24 717.145 1210.16 717.145 1210.16C717.145 1210.16 708.438 1129.16 765.408 1085.35C765.408 1085.35 537.865 1032.16 541.375 999.824C544.885 967.491 647.62 747.033 649.375 695.733C651.13 644.432 535.368 573.759 472.728 610.952Z" fill="#2D4B4B"/>
<path d="M890.688 1217.45C890.688 1217.45 1008.68 1255.92 1053.36 1239.52C1098.05 1223.12 1100.61 1215.56 1097.1 1194.63C1093.59 1173.71 1005.84 1110.05 941.853 1104.38C877.863 1098.71 839.253 1144.28 840.198 1167.09C841.143 1189.91 890.688 1217.45 890.688 1217.45Z" fill="#231F20"/>
<path d="M1024 1246.94C971.147 1246.94 893.657 1221.9 889.675 1220.62H889.067C887.042 1219.47 838.24 1191.86 837.227 1167.5C836.755 1156.22 844.517 1141.58 857.477 1129.16C868.867 1118.74 882.34 1110.87 897.003 1106.07C911.667 1101.26 927.185 1099.63 942.527 1101.28C1007.8 1107.15 1096.36 1171.68 1100.48 1194.29C1104.59 1216.91 1099.46 1226.49 1054.58 1242.96C1044.69 1246.02 1034.34 1247.37 1024 1246.94ZM892.105 1214.34C898.855 1216.5 1010.3 1251.74 1052.28 1236.35C1096.16 1220.28 1097.17 1213.67 1093.86 1195.24C1090.55 1176.81 1005.1 1113.36 941.987 1107.49C927.555 1105.94 912.958 1107.48 899.166 1112C885.375 1116.53 872.705 1123.94 862 1133.75C850.525 1144.68 843.437 1157.71 843.775 1166.96C844.585 1183.97 878.605 1206.78 892.037 1214.34H892.105Z" fill="#231F20"/>
<path d="M954.543 676.023C954.543 676.023 1131.26 891.35 1136.05 858.275C1138.75 840.792 1034.06 673.998 1034.06 673.998L1161.36 621.482C1161.36 621.482 1341.66 891.013 1301.36 965.399C1261.06 1039.78 1185.93 1062.73 1039.12 978.899C892.308 895.063 841.48 843.897 841.48 843.897L954.543 676.023Z" fill="#2D4B4B"/>
<path d="M754.81 1094.66C754.81 1094.66 836.688 1107.76 857.14 1094.66C877.593 1081.57 907.968 1067.66 921.265 1070.16C934.563 1072.66 1079.96 1152.85 1064.77 1165.2C1049.58 1177.55 988.765 1136.65 988.765 1136.65C988.765 1136.65 1040.07 1174.65 1029.6 1192.74C1019.14 1210.83 1006.79 1203.2 987.82 1187C968.853 1170.8 921.265 1136.45 921.265 1136.45C921.265 1136.45 986.875 1206.98 980.193 1226.96C973.51 1246.94 938.41 1221.23 895.615 1168.98C895.615 1168.98 942.865 1235.47 918.43 1239.32C893.995 1243.16 857.14 1199.36 857.14 1199.36C857.14 1199.36 820.555 1225.95 787.278 1222.64C763.666 1219.93 740.244 1215.75 717.145 1210.16C713.848 1189.3 715.543 1167.96 722.09 1147.88C728.637 1127.8 739.851 1109.57 754.81 1094.66Z" fill="white"/>
<path d="M915.392 1243.03C892.78 1243.03 864.43 1212.92 856.532 1204.01C847.352 1210.16 816.032 1229.06 786.94 1226.09C763.168 1223.37 739.587 1219.17 716.335 1213.53C715.706 1213.37 715.133 1213.04 714.68 1212.58C714.227 1212.11 713.912 1211.53 713.77 1210.9C710.497 1189.53 712.279 1167.68 718.972 1147.12C725.666 1126.56 737.084 1107.85 752.312 1092.5C752.695 1092.1 753.173 1091.79 753.703 1091.61C754.234 1091.44 754.799 1091.39 755.35 1091.49C777.76 1095.07 839.387 1102.16 855.25 1092.03C871.112 1081.9 905.47 1063.48 922.007 1066.99C930.445 1068.81 1063.76 1138.54 1069.16 1161.49C1069.46 1162.7 1069.42 1163.98 1069.03 1165.17C1068.65 1166.36 1067.95 1167.42 1067 1168.24C1057.75 1175.73 1036.62 1168.24 1018.19 1158.45C1029.4 1170.6 1038.44 1184.71 1032.64 1194.83C1031.3 1197.78 1029.3 1200.38 1026.82 1202.45C1024.33 1204.52 1021.4 1206 1018.26 1206.78C1009.22 1208.33 999.767 1202.12 985.525 1190.04C976.142 1182.01 959.402 1169.32 945.025 1158.65C964.397 1181.94 988.157 1214.27 983.432 1228.38C982.849 1230.61 981.646 1232.64 979.961 1234.21C978.277 1235.79 976.181 1236.86 973.915 1237.29C960.415 1239.79 938.14 1220.96 919.375 1201.52C926.125 1215.02 931.12 1228.52 927.88 1236.48C927.134 1238.31 925.905 1239.91 924.324 1241.1C922.743 1242.29 920.869 1243.02 918.902 1243.23C917.73 1243.23 916.558 1243.16 915.392 1243.03ZM857.14 1195.78C857.641 1195.77 858.138 1195.88 858.593 1196.09C859.049 1196.3 859.451 1196.61 859.772 1196.99C869.627 1208.74 899.26 1238.57 917.89 1235.74C918.663 1235.71 919.412 1235.47 920.056 1235.04C920.699 1234.61 921.211 1234.01 921.535 1233.31C925.787 1223.12 906.145 1189.57 892.78 1170.87C892.328 1170.13 892.166 1169.25 892.325 1168.4C892.483 1167.55 892.95 1166.79 893.637 1166.26C894.324 1165.73 895.181 1165.48 896.045 1165.54C896.909 1165.61 897.717 1165.99 898.315 1166.62C938.815 1216.03 963.655 1231.62 972.565 1230C973.915 1230 975.67 1228.99 976.75 1225.68C981.137 1212.59 943.405 1165.4 918.565 1138.74C917.977 1138.09 917.651 1137.25 917.651 1136.38C917.651 1135.5 917.977 1134.66 918.565 1134.02C919.127 1133.37 919.914 1132.96 920.766 1132.87C921.619 1132.78 922.473 1133.02 923.155 1133.54C923.695 1133.88 971.012 1168.17 989.912 1184.24C1001.93 1194.43 1010.57 1200.5 1016.91 1199.42C1020.29 1198.82 1023.66 1196.05 1026.36 1190.85C1033.11 1179.65 1005.37 1153.32 986.47 1139.35C985.709 1138.81 985.193 1137.99 985.034 1137.08C984.876 1136.16 985.089 1135.22 985.626 1134.45C986.163 1133.69 986.981 1133.18 987.898 1133.02C988.816 1132.86 989.759 1133.07 990.52 1133.61C1014.89 1150.01 1053.23 1169.72 1062.34 1162.37C1062.34 1159.19 1048.5 1144.82 996.527 1113.83C972.1 1098.57 946.635 1085.04 920.32 1073.33C909.047 1070.9 880.157 1083.66 858.827 1097.36C838.982 1110.12 768.31 1100.06 755.822 1098.17C742.036 1112.48 731.673 1129.74 725.511 1148.63C719.35 1167.52 717.551 1187.57 720.25 1207.25C742.499 1212.53 765.038 1216.49 787.75 1219.13C819.272 1222.24 854.845 1196.72 855.25 1196.52C855.799 1196.12 856.461 1195.91 857.14 1195.91V1195.78Z" fill="#231F20"/>
<path d="M765.407 1088.86C765.005 1088.92 764.595 1088.92 764.192 1088.86L540.16 1003.33C539.72 1003.17 539.319 1002.92 538.982 1002.6C538.645 1002.27 538.38 1001.88 538.202 1001.44C538.018 1001.01 537.924 1000.54 537.924 1000.06C537.924 999.585 538.018 999.115 538.202 998.677C539.215 996.382 639.992 767.216 596.792 643.42C596.644 642.99 596.582 642.535 596.611 642.081C596.639 641.627 596.757 641.184 596.958 640.776C597.159 640.368 597.438 640.004 597.781 639.704C598.123 639.405 598.521 639.177 598.952 639.032C599.821 638.727 600.775 638.775 601.608 639.167C602.441 639.558 603.088 640.261 603.407 641.125C621.902 694.315 617.65 771.199 590.65 869.547C578.524 913.205 563.621 956.042 546.032 997.799L766.69 1082.04C767.541 1082.37 768.229 1083.02 768.607 1083.86C768.985 1084.69 769.024 1085.63 768.715 1086.5C768.468 1087.18 768.02 1087.77 767.429 1088.19C766.838 1088.61 766.133 1088.85 765.407 1088.86Z" fill="#231F20"/>
<path d="M890.687 1035.6C890.376 1035.66 890.054 1035.66 889.742 1035.6C889.302 1035.48 888.889 1035.28 888.528 1035C888.167 1034.72 887.865 1034.38 887.639 1033.98C887.413 1033.59 887.268 1033.15 887.212 1032.7C887.156 1032.24 887.19 1031.79 887.312 1031.35C887.312 1030.87 900.812 980.856 917.822 877.783C934.832 774.709 940.57 662.59 940.637 661.78C940.69 660.861 941.101 659.999 941.783 659.38C942.465 658.761 943.362 658.435 944.282 658.472C945.202 658.525 946.063 658.936 946.682 659.618C947.301 660.3 947.627 661.197 947.59 662.117C947.59 663.197 941.65 775.654 924.707 879.132C907.765 982.611 894.13 1032.97 894.062 1033.44C893.78 1034.1 893.307 1034.65 892.706 1035.04C892.104 1035.42 891.401 1035.62 890.687 1035.6Z" fill="#231F20"/>
<path d="M758.185 278.24C763.315 276.89 768.715 275.743 774.317 274.73C791.665 271.625 808.81 258.53 825.213 251.577C845.188 243.105 865.793 236.199 886.84 230.922C909.857 225.185 934.832 221.54 956.905 230.315C968.12 235.082 978.317 241.957 986.942 250.565C1010.09 272.84 1026.97 303.283 1026.36 335.413C1025.76 367.544 1004.7 399.944 973.51 407.504C949.885 413.242 953.665 423.637 951.842 444.562C950.729 466.275 943.729 487.275 931.592 505.313C893.657 557.356 814.682 529.748 766.622 507.675C736.382 494.175 707.087 472.845 690.482 443.28C672.055 410.609 682.585 360.321 698.11 327.313C703.497 314.944 711.757 304.038 722.206 295.503C732.655 286.968 744.989 281.05 758.185 278.24Z" fill="white"/>
<path d="M867.198 538.996C839.388 538.996 805.368 529.771 765.138 511.321C740.163 499.845 706.413 479.123 687.445 445.507C669.153 413.107 678.063 362.346 695.005 326.368C700.518 313.443 709.055 302.031 719.897 293.092C730.739 284.153 743.569 277.948 757.308 275C762.303 273.65 767.703 272.435 773.71 271.355C784.951 268.552 795.68 263.996 805.503 257.855C811.578 254.547 817.788 251.105 823.863 248.54C843.997 240.021 864.758 233.07 885.963 227.75C907.023 222.485 934.158 217.692 958.188 227.277C969.858 232.339 980.428 239.63 989.305 248.742C1015.56 273.988 1030.28 305.848 1029.81 336.021C1029.2 371.459 1005.37 403.522 974.388 411.419C956.838 415.672 956.568 421.747 955.825 436.462C955.825 439.23 955.825 442.2 955.285 445.44C954.176 467.842 946.938 489.509 934.36 508.08C919.15 528.691 896.763 538.996 867.198 538.996ZM759.198 281.48C746.413 284.223 734.474 289.996 724.385 298.312C714.295 306.628 706.349 317.245 701.215 329.271C685.015 363.629 676.375 411.892 693.453 442.2C711.543 474.195 744.01 494.108 768.108 505.178C847.623 541.696 901.69 541.223 928.96 503.828C940.782 486.214 947.531 465.687 948.468 444.495C948.468 441.322 948.94 438.42 949.008 435.72C949.75 420.734 950.29 409.867 972.7 404.399C1000.85 397.649 1022.45 367.949 1022.99 335.548C1023.53 307.198 1009.49 277.16 984.648 253.197C976.384 244.651 966.553 237.776 955.69 232.947C933.483 224.105 907.63 228.695 887.65 233.757C866.773 238.92 846.327 245.69 826.495 254.007C820.758 256.437 814.953 259.678 808.81 263.053C798.38 269.563 786.991 274.392 775.06 277.363C769.188 278.375 763.99 279.523 759.198 280.805V281.48Z" fill="#231F20"/>
<path d="M862 613.247L855.79 720.506C855.79 720.506 806.785 776.599 743.673 742.106C680.56 707.613 682.923 653.072 682.923 653.072L724.3 451.582C724.3 451.582 781.54 438.082 796.12 325.761C844.925 364.343 903.213 389.08 964.87 397.379C964.87 397.379 963.79 523.471 941.583 573.556C919.375 623.642 862 613.247 862 613.247Z" fill="white"/>
<path d="M784.915 756.619C769.81 756.51 754.985 752.536 741.85 745.076C677.59 709.975 679.345 655.165 679.48 652.87L720.925 451.245C721.057 450.614 721.369 450.035 721.825 449.579C722.281 449.124 722.859 448.811 723.49 448.68C724.03 448.68 778.705 434.235 792.678 325.626C792.768 325.025 793.015 324.459 793.394 323.985C793.774 323.511 794.272 323.145 794.838 322.926C795.415 322.717 796.036 322.664 796.64 322.771C797.244 322.877 797.81 323.14 798.28 323.533C846.671 361.589 904.344 386.034 965.343 394.342C966.154 394.456 966.895 394.862 967.429 395.483C967.963 396.104 968.253 396.898 968.245 397.717C968.245 402.914 966.895 525.091 944.62 575.244C924.978 619.592 878.47 618.714 864.97 617.364L858.963 721.046C858.91 721.788 858.627 722.496 858.153 723.071C857.748 723.206 827.845 756.619 784.915 756.619ZM727 454.282L686.5 653.747C686.5 655.3 685.015 706.128 745.428 739.136C801.925 770.051 846.138 726.108 852.618 718.886L858.76 612.774C858.8 612.304 858.934 611.846 859.154 611.429C859.374 611.011 859.677 610.642 860.043 610.344C860.414 610.038 860.85 609.819 861.317 609.702C861.784 609.585 862.271 609.574 862.743 609.669C864.97 610.074 917.958 618.917 938.815 571.936C958.593 527.251 961.428 419.249 961.765 400.012C902.646 391.194 846.662 367.761 798.888 331.836C784.24 429.78 737.868 450.705 727 454.282Z" fill="#231F20"/>
<path d="M747.587 508.215C732.96 510.393 718.065 506.705 706.142 497.955C698.122 491.61 691.863 483.314 687.963 473.86C684.063 464.405 682.653 454.109 683.867 443.955C684.219 436.36 686.247 428.937 689.807 422.219C691.627 418.842 694.145 415.891 697.194 413.563C700.244 411.235 703.754 409.584 707.492 408.719C716.653 408.138 725.76 410.503 733.48 415.469C745.562 421.679 745.63 428.565 752.515 438.825C751.772 437.88 751.232 435.247 750.49 434.37" fill="white"/>
<path d="M739.217 511.996C726.581 512.02 714.273 507.973 704.117 500.453C695.593 493.761 688.94 484.983 684.801 474.967C680.662 464.951 679.178 454.037 680.492 443.28C680.854 435.156 683.046 427.218 686.904 420.059C689.019 416.278 691.921 412.995 695.415 410.433C698.909 407.871 702.912 406.089 707.154 405.209C717.067 404.558 726.928 407.088 735.302 412.432C742.375 415.923 747.957 421.84 751.029 429.105C751.434 429.78 751.772 430.522 752.245 431.265C752.687 431.499 753.077 431.82 753.392 432.21C754.095 433.191 754.62 434.287 754.944 435.45C755.1 435.887 755.28 436.315 755.484 436.732C755.983 437.449 756.177 438.334 756.025 439.194C755.874 440.054 755.388 440.819 754.675 441.322C753.984 441.833 753.125 442.061 752.273 441.961C751.42 441.861 750.637 441.439 750.084 440.782C749.888 440.561 749.729 440.311 749.612 440.04C747.926 437.465 746.372 434.807 744.954 432.075C742.44 426.158 737.857 421.359 732.062 418.574C725.032 413.809 716.651 411.442 708.167 411.824C704.942 412.534 701.909 413.933 699.275 415.925C696.642 417.917 694.471 420.456 692.912 423.367C689.572 429.617 687.68 436.538 687.377 443.617C686.146 453.247 687.425 463.031 691.092 472.02C694.758 481.009 700.687 488.897 708.302 494.918C719.474 503.219 733.467 506.783 747.249 504.84C748.133 504.723 749.028 504.953 749.745 505.482C750.463 506.01 750.948 506.797 751.097 507.675C751.174 508.111 751.163 508.557 751.065 508.987C750.967 509.418 750.783 509.825 750.525 510.183C750.267 510.542 749.94 510.845 749.563 511.075C749.186 511.305 748.766 511.458 748.329 511.523C745.31 511.926 742.262 512.084 739.217 511.996Z" fill="#231F20"/>
<path d="M858.557 669.61C846.324 668.772 834.481 664.958 824.058 658.499C813.635 652.041 804.948 643.133 798.752 632.552C776.747 595.899 785.252 572.476 785.252 572.476C785.252 572.476 814.885 610.209 861.527 612.977L858.557 669.61Z" fill="#231F20"/>
<path d="M858.558 672.985C845.741 672.185 833.32 668.237 822.394 661.49C811.468 654.744 802.374 645.407 795.918 634.307C773.373 596.642 782.418 572.274 782.418 571.261C782.647 570.719 783.011 570.244 783.477 569.882C783.942 569.521 784.492 569.285 785.074 569.197C785.657 569.109 786.252 569.172 786.803 569.379C787.355 569.587 787.843 569.933 788.223 570.384C788.223 570.384 817.585 607.037 862.068 609.939C862.508 609.956 862.941 610.061 863.34 610.248C863.739 610.435 864.097 610.699 864.393 611.026C864.688 611.353 864.915 611.736 865.061 612.152C865.206 612.568 865.267 613.009 865.24 613.449L861.933 669.812C861.897 670.678 861.524 671.495 860.893 672.088C860.262 672.681 859.424 673.003 858.558 672.985ZM787.75 579.496C786.805 588.407 787.75 606.497 801.925 630.595C807.629 640.203 815.465 648.371 824.828 654.469C834.191 660.567 844.831 664.431 855.925 665.762L858.76 616.082C831.543 612.558 806.419 599.614 787.75 579.496Z" fill="#231F20"/>
<path d="M870.1 442.875C870.1 442.875 893.455 504.435 882.79 511.726C872.125 519.016 849.85 507.406 849.85 507.406" fill="white"/>
<path d="M873.61 517.531C864.833 516.92 856.28 514.483 848.5 510.376C847.716 509.959 847.129 509.251 846.863 508.405C846.598 507.559 846.677 506.642 847.082 505.853C847.5 505.053 848.215 504.45 849.074 504.172C849.932 503.894 850.865 503.965 851.672 504.368C857.342 507.338 873.812 513.953 881.102 508.958C885.625 505.853 879.077 475.208 867.13 444.09C866.967 443.673 866.889 443.229 866.899 442.782C866.91 442.335 867.009 441.895 867.191 441.487C867.373 441.079 867.635 440.711 867.96 440.404C868.286 440.098 868.669 439.859 869.087 439.702C869.929 439.392 870.859 439.423 871.679 439.789C872.498 440.155 873.143 440.826 873.475 441.66C880.765 460.897 896.492 506.528 884.95 514.493C881.568 516.638 877.611 517.698 873.61 517.531Z" fill="#231F20"/>
<path d="M836.563 431.91C838.73 425.205 836.633 418.525 831.88 416.989C827.127 415.452 821.517 419.642 819.35 426.346C817.183 433.051 819.28 439.731 824.033 441.267C828.787 442.804 834.397 438.614 836.563 431.91Z" fill="#231F20"/>
<path d="M920.369 449.051C920.465 442.006 916.494 436.239 911.499 436.171C906.504 436.103 902.377 441.759 902.281 448.804C902.185 455.85 906.157 461.616 911.152 461.684C916.147 461.752 920.274 456.096 920.369 449.051Z" fill="#231F20"/>
<path d="M862.54 590.971C858.793 590.946 855.067 590.401 851.47 589.351C844.041 587.076 837.228 583.14 831.544 577.843C825.861 572.545 821.457 566.024 818.665 558.774C814.065 546.973 812.33 534.25 813.603 521.648C813.666 521.169 813.824 520.708 814.068 520.291C814.311 519.874 814.635 519.509 815.02 519.218C816.573 518.138 817.45 517.463 898.113 535.148C898.88 535.334 899.559 535.777 900.039 536.403C900.518 537.03 900.767 537.802 900.745 538.591C900.745 539.941 899.26 571.734 879.685 585.841C874.653 589.315 868.653 591.11 862.54 590.971ZM820.15 525.496C819.464 535.889 821.077 546.307 824.875 556.006C827.253 562.368 831.047 568.105 835.97 572.783C840.894 577.461 846.818 580.957 853.293 583.006C856.962 584.276 860.866 584.723 864.727 584.314C868.588 583.906 872.313 582.653 875.635 580.644C889.54 570.519 892.983 548.918 893.793 541.223C868.345 535.486 831.153 527.588 820.15 525.496Z" fill="#231F20"/>
<path d="M821.5 557.491C833.447 586.382 863.418 593.334 877.323 583.277C874.15 572.206 868.345 560.799 857.613 556.276C845.809 552.409 833.017 552.839 821.5 557.491Z" fill="#231F20"/>
<path d="M862.607 590.972C858.838 590.953 855.089 590.407 851.47 589.352C844.041 587.076 837.227 583.14 831.544 577.843C825.861 572.545 821.457 566.024 818.665 558.774C818.33 557.928 818.33 556.987 818.665 556.141C818.853 555.722 819.123 555.345 819.46 555.032C819.796 554.719 820.191 554.476 820.622 554.319C832.957 549.554 846.573 549.268 859.098 553.509C869.223 557.356 876.512 567.009 880.832 582.331C881.018 582.997 880.994 583.704 880.764 584.356C880.535 585.008 880.111 585.573 879.55 585.976C874.572 589.39 868.641 591.139 862.607 590.972ZM826.36 559.246C828.972 564.814 832.726 569.771 837.377 573.794C842.029 577.818 847.474 580.818 853.36 582.601C860.006 584.796 867.235 584.411 873.61 581.521C869.897 569.776 864.228 562.351 856.668 559.516C846.855 556.179 836.23 556.084 826.36 559.246Z" fill="#231F20"/>
<path d="M274.75 1073.13H273.872C273.442 1073.02 273.038 1072.83 272.683 1072.56C272.327 1072.29 272.028 1071.96 271.803 1071.58C271.577 1071.19 271.429 1070.77 271.367 1070.33C271.305 1069.89 271.331 1069.44 271.442 1069.01C299.098 942.45 301.187 811.638 277.585 684.258C251.8 550.066 214 496.943 214 496.403C213.472 495.678 213.253 494.773 213.393 493.887C213.532 493.001 214.017 492.206 214.742 491.678C215.467 491.15 216.373 490.931 217.259 491.071C218.145 491.21 218.939 491.695 219.467 492.42C221.02 494.58 258.28 547.096 283.997 682.975C307.797 811.316 305.686 943.12 277.787 1070.63C277.606 1071.31 277.215 1071.92 276.67 1072.37C276.125 1072.82 275.454 1073.08 274.75 1073.13Z" fill="white"/>
</g>
</g>
<defs>
<clipPath id="clip0_28_2">
<rect width="1569" height="1569" fill="white"/>
</clipPath>
</defs>
</svg>
