<svg width="2462" height="1856" viewBox="0 0 2462 1856" fill="none" xmlns="http://www.w3.org/2000/svg">
<path d="M1588.67 1511.74C1588.67 1511.74 1651.08 1605.38 1661.48 1600.15C1671.88 1594.92 1802.43 1507.13 1783.35 1498.45C1764.27 1489.77 1695.52 1507.74 1695.52 1507.74L1644.12 1446.18L1588.67 1511.74Z" fill="white"/>
<path d="M1661.11 1603.29C1648.8 1603.29 1613.84 1555.08 1586.08 1513.47C1585.68 1512.94 1585.47 1512.29 1585.47 1511.62C1585.47 1510.96 1585.68 1510.31 1586.08 1509.77L1641.48 1443.9C1641.76 1443.55 1642.12 1443.27 1642.52 1443.08C1642.93 1442.89 1643.37 1442.79 1643.82 1442.79C1644.26 1442.79 1644.71 1442.89 1645.11 1443.08C1645.52 1443.27 1645.87 1443.55 1646.16 1443.9L1696.32 1504.23C1707.89 1501.34 1766.12 1487.37 1784.33 1495.68C1785.41 1496.14 1786.32 1496.91 1786.98 1497.88C1787.63 1498.85 1788 1499.99 1788.03 1501.16C1788.4 1521.59 1668.13 1600.15 1662.53 1602.92C1662.08 1603.13 1661.6 1603.26 1661.11 1603.29ZM1592.48 1511.99C1620 1553.05 1653.48 1596.89 1660.19 1597.32C1664.19 1595.16 1695.46 1574.72 1725.99 1552.07C1781.81 1510.76 1782 1502.08 1781.87 1501.22C1766.92 1494.51 1714.84 1505.77 1696.01 1510.7C1695.44 1510.85 1694.84 1510.83 1694.28 1510.64C1693.73 1510.46 1693.24 1510.11 1692.87 1509.65L1643.63 1450.67L1592.48 1511.99Z" fill="#231F20"/>
<path d="M1373.8 1490.94C1373.8 1490.94 1344.31 1601.32 1352.38 1610.55C1360.44 1619.79 1551.12 1629.02 1544.17 1618.68C1537.21 1608.34 1447.53 1550.47 1447.53 1550.47L1456.09 1498.75L1373.8 1490.94Z" fill="white"/>
<path d="M1502.68 1626.07C1446.73 1626.07 1356.19 1619.6 1350.1 1612.59C1341.6 1602.86 1363.76 1516.42 1370.78 1490.14C1370.99 1489.45 1371.43 1488.85 1372.02 1488.45C1372.61 1488.05 1373.33 1487.86 1374.04 1487.92L1456.4 1495.68C1457.24 1495.8 1458.01 1496.24 1458.55 1496.91C1458.8 1497.24 1458.98 1497.62 1459.08 1498.02C1459.17 1498.42 1459.18 1498.84 1459.1 1499.25L1450.92 1548.99C1465.69 1558.53 1539.98 1606.8 1546.75 1616.71C1547.04 1617.14 1547.25 1617.62 1547.35 1618.13C1547.46 1618.63 1547.46 1619.16 1547.36 1619.67C1547.27 1620.18 1547.07 1620.66 1546.79 1621.09C1546.5 1621.53 1546.13 1621.9 1545.7 1622.19C1542.38 1625.02 1525.39 1626.07 1502.68 1626.07ZM1376.07 1494.38C1362.35 1546.34 1350.71 1602.67 1354.71 1608.71C1364.5 1616.28 1517.58 1624.04 1539.86 1618.5C1529.02 1608.03 1479.17 1574.6 1445.87 1553.18C1445.36 1552.86 1444.95 1552.4 1444.71 1551.85C1444.47 1551.3 1444.4 1550.69 1444.52 1550.1L1452.52 1501.65L1376.07 1494.38Z" fill="#231F20"/>
<path d="M1262.14 1111.58H1027.76V1600.21H1262.14V1111.58Z" fill="white"/>
<path d="M1262.21 1603.23H1027.89C1027.07 1603.23 1026.29 1602.9 1025.71 1602.33C1025.13 1601.75 1024.81 1600.97 1024.81 1600.15V1111.58C1024.81 1110.77 1025.13 1109.98 1025.71 1109.41C1026.29 1108.83 1027.07 1108.5 1027.89 1108.5H1262.33C1263.15 1108.5 1263.93 1108.83 1264.51 1109.41C1265.08 1109.98 1265.41 1110.77 1265.41 1111.58V1600.15C1265.41 1600.56 1265.32 1600.97 1265.16 1601.36C1265 1601.74 1264.76 1602.08 1264.46 1602.37C1264.16 1602.66 1263.81 1602.88 1263.42 1603.03C1263.03 1603.18 1262.62 1603.24 1262.21 1603.23ZM1030.84 1597.07H1259.13V1114.66H1030.84V1597.07Z" fill="#231F20"/>
<path d="M962.458 987.594H728.075V1600.15H962.458V987.594Z" fill="white"/>
<path d="M962.457 1603.23H728.075C727.258 1603.23 726.476 1602.9 725.898 1602.33C725.321 1601.75 724.997 1600.97 724.997 1600.15V987.593C724.997 986.777 725.321 985.994 725.898 985.417C726.476 984.839 727.258 984.515 728.075 984.515H962.457C963.273 984.515 964.056 984.839 964.633 985.417C965.21 985.994 965.534 986.777 965.534 987.593V1600.15C965.534 1600.97 965.21 1601.75 964.633 1602.33C964.056 1602.9 963.273 1603.23 962.457 1603.23ZM731.152 1597.07H959.379V990.671H731.152V1597.07Z" fill="#231F20"/>
<path d="M677.234 749.405H442.852V1600.15H677.234V749.405Z" fill="white"/>
<path d="M677.05 1603.23H443.16C442.344 1603.23 441.561 1602.9 440.984 1602.33C440.407 1601.75 440.083 1600.97 440.083 1600.15V749.466C440.083 748.65 440.407 747.867 440.984 747.29C441.561 746.712 442.344 746.388 443.16 746.388H677.05C677.866 746.388 678.649 746.712 679.226 747.29C679.803 747.867 680.128 748.65 680.128 749.466V1600.15C680.128 1600.97 679.803 1601.75 679.226 1602.33C678.649 1602.9 677.866 1603.23 677.05 1603.23ZM445.745 1597.07H673.973V752.483H445.93L445.745 1597.07Z" fill="#231F20"/>
<path d="M1329.79 999.167L1690.9 1469.14L1584.6 1541.23L1097.44 999.167H1329.79Z" fill="#231F20"/>
<path d="M1584.6 1544.31C1584.17 1544.31 1583.75 1544.21 1583.35 1544.03C1582.96 1543.85 1582.61 1543.59 1582.33 1543.26L1095.1 1001.2C1094.71 1000.76 1094.45 1000.22 1094.37 999.641C1094.28 999.061 1094.36 998.469 1094.61 997.936C1094.85 997.39 1095.25 996.926 1095.75 996.599C1096.25 996.272 1096.84 996.095 1097.44 996.089H1329.79C1330.25 996.087 1330.71 996.191 1331.12 996.394C1331.54 996.597 1331.9 996.893 1332.19 997.259L1693.36 1467.23C1693.87 1467.92 1694.09 1468.79 1693.98 1469.63C1693.91 1470.05 1693.76 1470.45 1693.52 1470.8C1693.29 1471.15 1692.98 1471.44 1692.63 1471.67L1586.33 1543.63C1585.84 1544.04 1585.24 1544.28 1584.6 1544.31V1544.31ZM1104.51 1002.25L1585.1 1537.48L1686.47 1468.4L1328.25 1002.25H1104.51Z" fill="#231F20"/>
<path d="M989.662 1007.54C989.662 1007.54 1021.61 1100.93 1056.44 1139.1C1091.28 1177.27 1380.75 1284.7 1380.75 1284.7L1354.41 1516.61L1488.22 1530.83C1488.22 1530.83 1579.68 1277.74 1548.66 1236.12C1517.64 1194.51 1179.36 971.402 1179.36 971.402L989.662 1007.54Z" fill="#231F20"/>
<path d="M1488.22 1533.91L1354.1 1519.69C1353.29 1519.6 1352.54 1519.2 1352.01 1518.58C1351.76 1518.26 1351.58 1517.89 1351.47 1517.5C1351.37 1517.11 1351.34 1516.7 1351.39 1516.3L1377.43 1286.73C1348.31 1275.83 1088.14 1178.07 1054.17 1141.13C1019.33 1102.96 988.063 1012.34 986.462 1008.53C986.28 1008.13 986.186 1007.7 986.186 1007.26C986.186 1006.83 986.28 1006.4 986.462 1006C986.687 1005.61 986.989 1005.28 987.349 1005.01C987.709 1004.75 988.119 1004.56 988.555 1004.46L1178.38 968.386C1179.14 968.25 1179.93 968.403 1180.59 968.817C1194.99 977.99 1520.29 1192.72 1551.06 1234.34C1564.54 1252.38 1558.45 1308.22 1532.96 1399.88C1514.5 1467.6 1491.3 1531.26 1491.05 1531.88C1490.84 1532.46 1490.45 1532.97 1489.95 1533.33C1489.44 1533.69 1488.84 1533.89 1488.22 1533.91V1533.91ZM1357.85 1513.9L1486.13 1527.5C1490.37 1515.62 1510.38 1458.62 1527.12 1398.22C1557.89 1286.3 1554.63 1249.3 1546.2 1238.16C1516.65 1198.63 1199.61 988.579 1178.81 974.85L993.787 1010.06C999.942 1027.06 1028.44 1104.01 1058.72 1137.19C1092.7 1174.13 1378.78 1280.94 1381.86 1281.99C1382.51 1282.23 1383.05 1282.69 1383.41 1283.28C1383.77 1283.87 1383.91 1284.57 1383.83 1285.25L1357.85 1513.9Z" fill="#231F20"/>
<path d="M1346.1 666.602C1346.1 666.602 1406.91 802.041 1416.14 802.965L1453.69 744.603C1453.69 744.603 1457.14 704.771 1467.54 688.58C1477.94 672.389 1489.51 677.006 1489.51 677.006C1489.51 677.006 1499.79 657.552 1512.47 655.274C1525.15 652.996 1564.72 677.499 1541.52 692.643C1518.32 707.788 1443.41 924.368 1415.65 927.077C1327.45 935.572 1264.79 691.597 1265.41 690.858L1346.1 666.602Z" fill="white"/>
<path d="M1410.97 930.34C1377.06 930.34 1343.27 896.233 1311.26 828.76C1286.64 776.862 1259.37 692.582 1263.19 688.703C1263.55 688.344 1263.99 688.088 1264.48 687.964L1345.24 663.339C1345.95 663.148 1346.71 663.209 1347.38 663.512C1348.05 663.815 1348.6 664.341 1348.93 665.001C1375.09 723.24 1405.99 786.774 1415.4 798.163L1450.67 743.248C1451.23 737.461 1454.98 702.186 1464.95 686.61C1473.63 673.066 1483.42 672.512 1487.97 673.189C1491.17 667.833 1500.28 654.043 1511.91 651.95C1522.38 650.041 1545.4 662.6 1550.57 675.59C1552.05 679.136 1552.1 683.115 1550.73 686.703C1549.35 690.29 1546.65 693.211 1543.18 694.86C1533.76 701.016 1512.41 748.851 1492.1 795.146C1456.52 875.487 1432.02 928.246 1415.83 929.785C1414.23 930.062 1412.6 930.247 1410.97 930.34V930.34ZM1268.98 693.013C1279.77 734.294 1293.85 774.644 1311.08 813.677C1334.71 866.314 1371.89 928.246 1415.28 923.999C1429.07 922.644 1462.24 847.721 1486.49 792.93C1509.21 741.525 1528.9 697.137 1539.8 690.058C1546.75 685.502 1545.95 681.131 1544.84 678.176C1540.6 667.402 1520.22 656.937 1513.02 658.291C1503.79 659.953 1494.86 673.435 1492.22 678.422C1491.86 679.098 1491.27 679.621 1490.56 679.893C1489.84 680.165 1489.06 680.167 1488.34 679.9C1488.03 679.9 1478.92 676.575 1469.88 690.242C1460.03 705.572 1456.52 744.48 1456.52 744.849C1456.49 745.357 1456.32 745.847 1456.03 746.265L1418.73 804.873C1418.41 805.359 1417.97 805.748 1417.45 805.997C1416.93 806.247 1416.35 806.348 1415.77 806.289C1406.36 805.12 1367.52 721.886 1344.38 670.85L1268.98 693.013Z" fill="#231F20"/>
<path d="M1071.28 309.534C1067.13 313.284 1063.21 317.272 1059.52 321.477C1045.98 336.745 1038.41 356.261 1031.15 375.284C1020.13 404.157 1013.48 460.426 995.448 483.512C975.629 508.815 931.067 497.857 913.648 527.715C902.507 546.8 911.617 571.548 905.585 592.787C894.567 631.203 842.558 639.945 818.676 672.019C799.596 697.568 802.058 733.583 810.859 763.995C817.014 785.111 826.001 806.105 841.634 821.249C892.844 870.13 991.201 829.745 1026.28 779.879C1043.83 754.699 1053.74 721.393 1081.13 707.603C1101.01 697.63 1124.58 701.016 1146.8 700.215C1171.33 699.361 1195.36 693.052 1217.15 681.746C1239.92 669.865 1261.96 645.301 1253.03 621.23C1247.43 606.27 1231.12 596.604 1228.41 580.782C1224.23 559.112 1246.51 543.044 1262.08 527.407C1302.77 486.344 1302.34 411.853 1261.16 371.282C1270.42 358.658 1275.02 343.214 1274.18 327.578C1273.34 311.942 1267.11 297.081 1256.54 285.524C1251.82 280.185 1245.64 276.353 1238.75 274.505C1231.83 273.501 1224.79 273.73 1217.95 275.182C1160.83 282.693 1115.53 269.641 1071.28 309.534Z" fill="white"/>
<path d="M901.707 846.429C878.835 847.181 856.587 838.886 839.788 823.342C825.693 809.922 815.537 791.268 807.905 764.672C800.273 738.077 795.041 698.43 816.215 670.049C826.678 655.951 842.312 646.286 857.453 636.928C877.58 624.616 896.599 612.734 902.631 591.802C904.666 582.739 905.371 573.427 904.723 564.16C904.723 551.171 904.17 537.688 910.878 526.053C920.726 509.184 938.453 504.567 955.502 500.073C970.274 496.194 984.246 492.562 992.925 481.604C1004.07 467.383 1011.02 438.94 1017.11 413.884C1020.08 400.476 1023.78 387.24 1028.19 374.237C1035.21 355.768 1043.09 335.391 1057.12 319.507C1060.98 315.169 1065.09 311.058 1069.43 307.195V307.195C1102.24 277.644 1134.98 276.413 1172.84 275.059C1187.11 274.505 1201.83 273.951 1217.52 271.857L1219.86 271.488C1226.31 270.286 1232.92 270.286 1239.37 271.488C1246.86 273.457 1253.59 277.615 1258.7 283.431C1269.39 295.23 1275.81 310.282 1276.93 326.169C1278.05 342.056 1273.79 357.857 1264.85 371.036C1284.47 392.828 1295.24 421.157 1295.07 450.478C1294.9 479.799 1283.8 508 1263.93 529.562C1261.41 532.147 1258.7 534.733 1255.93 537.319C1242.14 550.309 1227.98 563.729 1231.31 580.413C1233.57 588.304 1237.81 595.487 1243.62 601.283C1248.73 606.936 1252.88 613.382 1255.93 620.368C1265.04 644.993 1244.05 671.342 1218.63 684.702C1196.42 696.262 1171.94 702.759 1146.92 703.725C1141.51 703.725 1136.09 703.725 1130.61 703.725C1114.06 703.725 1096.94 703.725 1082.48 710.681C1064.01 719.854 1054.11 738.139 1043.46 757.408C1038.9 765.657 1034.16 774.215 1028.81 782.033C1005.85 814.847 957.656 841.811 914.264 846.182C909.955 846.244 905.77 846.429 901.707 846.429ZM1073.37 311.812C1069.29 315.479 1065.42 319.385 1061.8 323.509C1048.5 338.531 1041.12 357.8 1034.04 376.392C1029.66 389.119 1026.02 402.09 1023.15 415.239C1016.56 442.265 1009.79 470.153 997.849 485.359C987.877 498.103 972.244 502.228 957.102 506.168C940.546 510.477 924.85 514.602 916.295 529.316C910.14 539.412 910.632 551.417 910.878 564.16C911.55 574.031 910.762 583.947 908.54 593.588C901.892 616.859 880.904 629.787 860.654 642.284C846.066 651.334 830.925 660.753 821.139 673.805C801.504 700.216 806.305 737.154 813.814 763.133C821.323 789.113 830.74 806.228 844.035 819.033C865.639 839.657 893.829 841.688 913.648 839.657C955.441 835.532 1001.73 809.614 1023.76 778.093C1028.93 770.644 1033.61 762.271 1038.1 754.145C1048.75 734.876 1059.77 714.868 1079.71 704.894C1095.53 697.014 1113.38 697.137 1130.61 697.322C1136.03 697.322 1141.38 697.322 1146.68 697.322C1170.77 696.323 1194.35 690.016 1215.74 678.853C1238.82 666.54 1258.08 643.393 1250.14 622.153C1247.31 615.808 1243.46 609.966 1238.76 604.854C1232.15 598.289 1227.35 590.123 1224.84 581.152C1221.09 561.329 1237.16 546.061 1251.5 532.578C1254.2 530.054 1256.91 527.53 1259.37 525.006C1278.41 504.274 1288.9 477.108 1288.74 448.96C1288.58 420.812 1277.78 393.767 1258.51 373.252C1258.02 372.691 1257.75 371.968 1257.75 371.221C1257.75 370.473 1258.02 369.751 1258.51 369.189C1267.27 357.18 1271.61 342.516 1270.8 327.676C1269.99 312.835 1264.09 298.729 1254.08 287.741C1249.79 282.813 1244.13 279.259 1237.83 277.521C1232.09 276.624 1226.23 276.77 1220.54 277.952L1218.14 278.322C1202.19 280.476 1187.36 281.03 1172.9 281.584C1135.97 282.877 1104.51 284.047 1073.37 312.366V311.812Z" fill="#231F20"/>
<path d="M1270.45 566.253C1270.45 566.253 1346.04 644.808 1367.09 693.567C1330.9 697.194 1295.25 704.981 1260.85 716.776L1270.45 566.253Z" fill="#BFF5C1"/>
<path d="M1154.31 519.589C1154.31 519.589 1084.14 490.9 997.11 563.914C958.334 596.851 950.209 632.496 933.775 669.434C946.085 793.176 989.663 1007.48 989.663 1007.48L1329.79 999.106C1329.79 999.106 1306.34 623.877 1279.13 577.581C1251.93 531.286 1154.31 519.589 1154.31 519.589Z" fill="#BFF5C1"/>
<path d="M1108.21 535.287C1113.5 545.63 1171.85 768.612 1171.85 768.612L1203.3 561.513L1108.21 535.287Z" fill="#231F20"/>
<path d="M1171.85 771.691C1171.17 771.694 1170.5 771.464 1169.96 771.039C1169.43 770.614 1169.05 770.019 1168.9 769.351C1152.65 707.418 1109.68 544.891 1105.5 536.642C1105.22 536.115 1105.1 535.516 1105.17 534.922C1105.23 534.329 1105.48 533.769 1105.87 533.317C1106.25 532.857 1106.75 532.514 1107.32 532.328C1107.88 532.143 1108.49 532.123 1109.07 532.271L1204.16 558.62C1204.89 558.809 1205.51 559.26 1205.92 559.886C1206.33 560.512 1206.5 561.267 1206.38 562.006L1174.87 769.105C1174.78 769.802 1174.45 770.446 1173.93 770.92C1173.41 771.393 1172.74 771.667 1172.03 771.691H1171.85ZM1113.07 539.781C1122.98 570.932 1159.11 707.911 1171.05 753.406L1199.86 563.729L1113.07 539.781Z" fill="#231F20"/>
<path d="M1246.7 355.461C1246.7 355.461 1262.58 405.881 1252.48 443.311C1249.93 453.772 1244.38 463.261 1236.52 470.619C1228.66 477.977 1218.83 482.886 1208.23 484.744L1205.64 551.602C1205.64 551.602 1204.6 585.831 1162.93 578.874C1150.85 576.864 1139.49 571.806 1129.91 564.179C1120.34 556.552 1112.87 546.608 1108.21 535.287V412.16C1108.21 412.16 1156.77 386.673 1154.37 342.348C1154.43 342.286 1209.83 371.836 1246.7 355.461Z" fill="white"/>
<path d="M1173.45 582.876C1169.76 582.859 1166.08 582.55 1162.43 581.952C1149.79 579.9 1137.88 574.617 1127.88 566.615C1117.87 558.612 1110.1 548.16 1105.31 536.272C1105.26 535.946 1105.26 535.613 1105.31 535.287V412.16C1105.3 411.597 1105.46 411.043 1105.75 410.563C1106.04 410.084 1106.47 409.698 1106.98 409.452C1107.41 409.452 1153.75 384.334 1151.48 342.532C1151.45 341.987 1151.57 341.445 1151.82 340.959C1152.07 340.473 1152.44 340.061 1152.89 339.762C1153.36 339.492 1153.89 339.349 1154.43 339.349C1154.97 339.349 1155.5 339.492 1155.97 339.762C1156.52 339.762 1210.5 368.389 1245.59 352.752C1245.98 352.576 1246.41 352.486 1246.85 352.489C1247.28 352.491 1247.71 352.586 1248.11 352.766C1248.5 352.946 1248.86 353.208 1249.14 353.535C1249.43 353.861 1249.64 354.245 1249.77 354.66C1250.45 356.753 1265.84 406.373 1255.56 444.235C1252.89 454.8 1247.35 464.42 1239.55 472.027C1231.75 479.634 1221.99 484.931 1211.37 487.329L1208.84 551.786C1208.23 560.923 1204.03 569.447 1197.15 575.488C1190.38 580.687 1181.98 583.306 1173.45 582.876V582.876ZM1111.28 534.671C1115.82 545.335 1122.96 554.692 1132.05 561.886C1141.13 569.08 1151.88 573.884 1163.29 575.857C1176.16 578.012 1186.13 576.288 1192.96 570.686C1198.48 565.748 1201.88 558.865 1202.44 551.478L1205.15 484.744C1205.17 484.009 1205.46 483.307 1205.96 482.765C1206.45 482.223 1207.13 481.876 1207.86 481.789C1217.89 480.025 1227.18 475.35 1234.58 468.345C1241.98 461.339 1247.16 452.313 1249.46 442.388C1257.77 411.606 1247.86 371.098 1244.66 359.524C1212.97 371.221 1171.3 353.86 1157.51 347.211C1156.4 385.75 1119.72 408.774 1111.28 413.823V534.671Z" fill="#231F20"/>
<path d="M1131.78 404.342C1131.78 404.342 1112.89 357.123 1088.7 385.503C1064.51 413.884 1097.01 447.067 1117.69 445.281" fill="white"/>
<path d="M1115.72 448.483C1103.41 448.483 1088.27 438.263 1081.13 424.35C1077.58 417.866 1076.16 410.432 1077.06 403.098C1077.97 395.763 1081.16 388.898 1086.17 383.472C1088.48 380.089 1091.64 377.386 1095.35 375.642C1099.05 373.899 1103.15 373.18 1107.22 373.56C1123.72 376.33 1134.18 402.125 1134.61 403.172C1134.83 403.554 1134.96 403.977 1135 404.413C1135.03 404.849 1134.98 405.288 1134.83 405.701C1134.69 406.114 1134.46 406.492 1134.15 406.808C1133.85 407.124 1133.48 407.373 1133.08 407.536C1132.67 407.699 1132.24 407.774 1131.8 407.755C1131.36 407.737 1130.93 407.625 1130.54 407.427C1130.15 407.23 1129.81 406.952 1129.53 406.611C1129.26 406.27 1129.06 405.874 1128.95 405.45C1126.3 398.924 1117.07 381.44 1106.24 379.655C1103.21 379.484 1100.19 380.117 1097.49 381.49C1094.79 382.863 1092.5 384.928 1090.85 387.473C1086.62 391.961 1083.92 397.675 1083.15 403.793C1082.38 409.912 1083.56 416.118 1086.54 421.518C1093 433.831 1106.79 443.25 1117.32 442.203C1117.72 442.17 1118.13 442.216 1118.51 442.341C1118.9 442.465 1119.26 442.664 1119.57 442.928C1119.88 443.191 1120.13 443.513 1120.31 443.874C1120.5 444.236 1120.61 444.63 1120.64 445.035C1120.68 445.436 1120.64 445.842 1120.53 446.228C1120.41 446.614 1120.22 446.973 1119.96 447.283C1119.7 447.593 1119.38 447.848 1119.02 448.033C1118.67 448.218 1118.27 448.329 1117.87 448.36L1115.72 448.483Z" fill="#231F20"/>
<path d="M1219.12 444.419C1214.22 444.304 1209.36 443.538 1204.66 442.142C1203.88 441.887 1203.23 441.339 1202.85 440.615C1202.47 439.891 1202.39 439.047 1202.63 438.263C1202.88 437.486 1203.43 436.839 1204.15 436.46C1204.88 436.08 1205.72 435.998 1206.5 436.232C1212.66 438.374 1219.32 438.674 1225.65 437.093C1226.45 434.385 1218.2 418.317 1207.67 403.049C1207.44 402.723 1207.27 402.353 1207.18 401.962C1207.09 401.571 1207.08 401.165 1207.15 400.77C1207.22 400.374 1207.36 399.996 1207.58 399.658C1207.8 399.32 1208.08 399.029 1208.41 398.801C1208.74 398.565 1209.12 398.396 1209.51 398.306C1209.91 398.215 1210.32 398.204 1210.72 398.272C1211.12 398.341 1211.5 398.488 1211.85 398.706C1212.19 398.923 1212.49 399.207 1212.72 399.54C1217.64 406.62 1233.52 430.321 1231.18 439.063C1231 439.853 1230.64 440.59 1230.13 441.22C1229.61 441.849 1228.97 442.354 1228.23 442.696C1225.35 443.925 1222.25 444.513 1219.12 444.419Z" fill="#231F20"/>
<path d="M1202.44 464.551C1198.43 464.537 1194.43 463.999 1190.56 462.95C1179.01 459.68 1169.05 452.302 1162.56 442.203C1162.33 441.471 1162.39 440.682 1162.72 439.991C1163.05 439.299 1163.62 438.754 1164.33 438.461C1165.03 438.169 1165.82 438.151 1166.54 438.41C1167.26 438.67 1167.86 439.188 1168.22 439.864C1174.25 448.45 1183.12 454.623 1193.27 457.286C1206.13 460.488 1219.61 456.855 1233.34 446.451C1233.66 446.209 1234.03 446.032 1234.42 445.932C1234.81 445.831 1235.22 445.809 1235.62 445.866C1236.02 445.924 1236.41 446.059 1236.75 446.265C1237.1 446.471 1237.4 446.743 1237.65 447.067C1237.89 447.39 1238.07 447.758 1238.17 448.15C1238.27 448.541 1238.29 448.949 1238.23 449.349C1238.17 449.749 1238.04 450.134 1237.83 450.482C1237.63 450.83 1237.36 451.134 1237.03 451.376C1227.27 459.466 1215.11 464.098 1202.44 464.551V464.551Z" fill="#231F20"/>
<path d="M1208.23 484.744C1208.23 484.744 1172.34 487.822 1152.03 481.789C1152.03 481.789 1172.4 535.349 1206.38 536.395L1208.23 484.744Z" fill="#231F20"/>
<path d="M1206.38 539.473C1170.74 538.365 1150.12 485.174 1149.26 482.897C1149.08 482.355 1149.04 481.776 1149.15 481.215C1149.26 480.655 1149.51 480.131 1149.88 479.695C1150.27 479.278 1150.77 478.978 1151.33 478.826C1151.88 478.674 1152.46 478.676 1153.02 478.833C1172.53 484.682 1207.73 481.665 1208.1 481.665C1208.54 481.637 1208.98 481.699 1209.39 481.847C1209.81 481.995 1210.18 482.227 1210.5 482.527C1210.82 482.823 1211.07 483.186 1211.23 483.591C1211.39 483.996 1211.46 484.432 1211.43 484.867L1209.58 536.518C1209.56 536.923 1209.47 537.32 1209.3 537.687C1209.13 538.055 1208.89 538.385 1208.59 538.66C1208.3 538.934 1207.95 539.147 1207.57 539.287C1207.19 539.427 1206.78 539.49 1206.38 539.473ZM1157.14 486.221C1163.29 499.088 1179.61 529.87 1203.24 533.071L1204.84 488.068C1188.92 489.292 1172.92 488.672 1157.14 486.221V486.221Z" fill="#231F20"/>
<path d="M1187.24 402.534C1190.13 402.489 1192.41 398.319 1192.33 393.22C1192.25 388.12 1189.85 384.023 1186.96 384.067C1184.07 384.112 1181.79 388.283 1181.87 393.382C1181.95 398.482 1184.35 402.579 1187.24 402.534Z" fill="#231F20"/>
<path d="M1235.67 401.783C1238.56 401.738 1240.83 397.568 1240.75 392.468C1240.67 387.369 1238.27 383.271 1235.38 383.316C1232.49 383.361 1230.21 387.531 1230.29 392.631C1230.37 397.73 1232.78 401.828 1235.67 401.783Z" fill="#231F20"/>
<path d="M933.775 669.434C933.775 669.434 862.993 901.282 912.787 955.273C947.316 992.765 1035.89 952.133 1074.42 937.296C1264.85 864.22 1332.25 804.442 1317.05 807.274C1321.72 791.637 1273.96 813.431 1265.96 816.447C1262.76 803.642 1286.15 781.11 1299.32 780.371C1312.49 779.632 1327.63 784.988 1329.66 771.937C1330.77 764.488 1323.51 756.915 1317.05 753.468C1310.58 750.02 1254.82 746.757 1243.19 757.346C1235.55 764.18 1231.68 774.338 1224.72 781.602C1216.99 788.358 1207.84 793.301 1197.95 796.07C1160.24 809.614 1122.04 821.803 1083.34 832.638C1064.88 837.933 1020.44 848.152 1020.44 848.152L1042.66 711.235" fill="white"/>
<path d="M955.625 973.988C937.591 973.988 921.588 969.494 910.509 957.427C860.161 902.759 927.928 678.114 930.821 668.633C931.063 667.845 931.605 667.184 932.331 666.792C933.056 666.4 933.907 666.31 934.698 666.54C935.475 666.795 936.122 667.343 936.501 668.067C936.881 668.791 936.962 669.635 936.729 670.419C936.052 672.697 867.055 901.158 915.064 953.241C944.854 985.623 1020.38 955.519 1060.94 939.389L1073.25 934.464C1232.66 873.332 1304.86 821.68 1314.89 809.367C1314.53 808.978 1314.26 808.505 1314.12 807.99C1313.98 807.474 1313.97 806.933 1314.09 806.412C1314.17 806.005 1314.17 805.588 1314.09 805.181C1313.35 804.565 1307.94 801.918 1269.35 818.356L1266.95 819.341C1266.54 819.524 1266.1 819.619 1265.65 819.619C1265.21 819.619 1264.77 819.524 1264.36 819.341C1263.97 819.126 1263.63 818.836 1263.35 818.487C1263.08 818.138 1262.88 817.737 1262.76 817.309C1262.39 813.817 1262.75 810.288 1263.81 806.941C1264.87 803.594 1266.61 800.501 1268.91 797.855C1275.93 788.374 1288.8 777.97 1298.89 777.416C1302.35 777.23 1305.83 777.23 1309.29 777.416C1320.62 778.093 1325.36 777.724 1326.34 771.26C1327.33 764.795 1321.48 758.947 1315.39 756.053C1309.29 753.16 1255.56 749.897 1244.66 759.563C1240.94 763.217 1237.73 767.359 1235.12 771.875C1231.25 778.763 1225.96 784.743 1219.59 789.415C1213.22 794.087 1205.92 797.342 1198.19 798.963C1160.59 812.445 1121.93 824.758 1083.34 835.901C1064.88 841.072 1020.75 851.292 1020.31 851.415C1019.83 851.532 1019.32 851.525 1018.84 851.396C1018.35 851.267 1017.91 851.02 1017.54 850.676C1017.17 850.327 1016.89 849.891 1016.73 849.408C1016.57 848.924 1016.53 848.408 1016.62 847.906L1038.84 710.989C1038.9 710.591 1039.04 710.208 1039.25 709.864C1039.46 709.52 1039.74 709.222 1040.06 708.987C1040.39 708.751 1040.76 708.584 1041.15 708.494C1041.55 708.405 1041.95 708.395 1042.35 708.465C1043.15 708.601 1043.87 709.043 1044.35 709.698C1044.83 710.352 1045.04 711.168 1044.93 711.974L1023.39 844.397C1035.15 841.627 1066.78 834.116 1081.68 829.93C1120.15 819.156 1158.62 806.843 1196.16 793.422C1203.24 792.005 1209.93 789.07 1215.76 784.819C1221.59 780.567 1226.44 775.101 1229.95 768.797C1232.9 763.874 1236.48 759.361 1240.6 755.376C1253.83 743.618 1310.34 747.065 1318.15 751.005C1325.97 754.945 1333.79 763.872 1332.43 772.676C1330.46 784.988 1319.08 784.496 1308.98 783.942C1305.73 783.728 1302.46 783.728 1299.2 783.942C1292.3 784.311 1280.73 792.376 1273.84 801.918C1271.41 804.989 1269.65 808.532 1268.67 812.322C1298.58 800.01 1312.92 796.439 1317.91 801.056C1319.11 802.132 1319.84 803.635 1319.94 805.243C1320.71 805.747 1321.28 806.512 1321.54 807.397C1324.49 817.802 1244.17 875.733 1075.34 940.682L1063.03 945.484C1033.55 956.873 990.955 973.988 955.625 973.988Z" fill="#231F20"/>
<path d="M1042.1 714.437H1041.55C1041.15 714.37 1040.77 714.224 1040.43 714.007C1040.08 713.79 1039.79 713.507 1039.56 713.173C1039.33 712.84 1039.17 712.464 1039.09 712.068C1039.01 711.671 1039.01 711.263 1039.09 710.866L1053.43 630.833C1053.58 630.031 1054.03 629.319 1054.7 628.848C1055.37 628.376 1056.19 628.183 1057 628.309C1057.8 628.459 1058.5 628.918 1058.96 629.587C1059.43 630.256 1059.6 631.08 1059.46 631.88L1045.12 711.912C1045 712.624 1044.63 713.271 1044.08 713.734C1043.52 714.197 1042.82 714.446 1042.1 714.437Z" fill="#231F20"/>
<path d="M1476.22 733.829C1475.52 733.82 1474.85 733.582 1474.31 733.152C1473.67 732.644 1473.27 731.906 1473.17 731.099C1473.08 730.291 1473.31 729.48 1473.81 728.842C1482.55 718.069 1476.22 693.936 1476.15 693.69C1475.96 692.955 1476.04 692.173 1476.4 691.499C1476.75 690.825 1477.34 690.311 1478.06 690.057C1478.78 689.798 1479.56 689.811 1480.26 690.095C1480.97 690.379 1481.54 690.914 1481.88 691.596C1481.88 691.596 1488.03 704.771 1497.88 705.756C1499.3 703.478 1494.06 690.673 1486.86 678.607C1486.45 677.901 1486.33 677.063 1486.53 676.27C1486.72 675.477 1487.22 674.792 1487.91 674.359C1488.62 673.952 1489.47 673.84 1490.26 674.047C1491.05 674.254 1491.73 674.764 1492.16 675.467C1496.9 683.409 1507.48 702.616 1503.24 709.265C1502.57 710.243 1501.63 711.007 1500.54 711.465C1499.45 711.924 1498.25 712.058 1497.08 711.851C1492.14 711.167 1487.57 708.848 1484.09 705.264C1485.61 714.781 1483.59 724.523 1478.43 732.659C1478.17 733.005 1477.84 733.289 1477.45 733.491C1477.07 733.693 1476.65 733.808 1476.22 733.829Z" fill="#231F20"/>
<path d="M1508.65 819.218C1497.49 819.522 1486.4 817.331 1476.18 812.804C1465.97 808.278 1456.9 801.531 1449.63 793.053C1442.39 784.087 1437.25 773.623 1434.57 762.42C1431.89 751.218 1431.73 739.558 1434.12 728.288C1443.1 679.038 1490.74 638.406 1540.29 638.406C1551.46 638.105 1562.56 640.304 1572.77 644.841C1582.98 649.378 1592.05 656.14 1599.32 664.632C1606.54 673.603 1611.67 684.07 1614.34 695.272C1617.01 706.474 1617.16 718.131 1614.76 729.397C1605.84 778.894 1558.2 819.218 1508.65 819.218ZM1540.35 644.808C1493.63 644.808 1448.7 682.855 1440.21 729.643C1437.99 740.019 1438.1 750.76 1440.54 761.088C1442.97 771.416 1447.68 781.072 1454.3 789.359C1461.01 797.14 1469.37 803.327 1478.78 807.469C1488.18 811.612 1498.38 813.606 1508.65 813.307C1555.37 813.307 1600.24 775.261 1608.73 728.535C1610.98 718.159 1610.88 707.414 1608.44 697.082C1606 686.751 1601.28 677.094 1594.64 668.818C1587.94 661.035 1579.59 654.841 1570.2 650.688C1560.81 646.535 1550.61 644.526 1540.35 644.808V644.808Z" fill="#D1D3D4"/>
<path d="M1595.62 855.478H1217.34C1212.56 855.469 1207.86 854.283 1203.65 852.024C1199.45 849.766 1195.86 846.505 1193.21 842.53C1190.57 838.556 1188.94 833.99 1188.48 829.236C1188.01 824.483 1188.73 819.688 1190.56 815.278L1270.58 623.877C1272.77 618.584 1276.49 614.061 1281.25 610.883C1286.02 607.705 1291.62 606.013 1297.35 606.023H1675.39C1680.17 606.018 1684.88 607.194 1689.09 609.448C1693.31 611.703 1696.9 614.965 1699.55 618.944C1702.2 622.923 1703.83 627.497 1704.29 632.256C1704.74 637.016 1704.01 641.814 1702.17 646.224L1622.15 837.625C1619.97 842.879 1616.29 847.375 1611.58 850.551C1606.86 853.726 1601.31 855.44 1595.62 855.478V855.478ZM1297.1 612.18C1292.59 612.177 1288.17 613.515 1284.41 616.024C1280.65 618.534 1277.72 622.102 1275.99 626.278L1195.98 817.617C1194.53 821.095 1193.96 824.877 1194.33 828.627C1194.69 832.377 1195.97 835.98 1198.06 839.115C1200.15 842.251 1202.98 844.823 1206.3 846.604C1209.62 848.384 1213.32 849.318 1217.09 849.322H1595.38C1599.89 849.325 1604.31 847.987 1608.07 845.478C1611.83 842.968 1614.76 839.4 1616.49 835.224L1696.5 643.885C1697.95 640.407 1698.52 636.625 1698.16 632.875C1697.79 629.125 1696.51 625.522 1694.42 622.386C1692.33 619.251 1689.5 616.679 1686.19 614.898C1682.87 613.118 1679.16 612.184 1675.39 612.18H1297.1Z" fill="#231F20"/>
<path d="M1407.03 649.857H1303.14C1302.32 649.857 1301.54 649.532 1300.96 648.955C1300.38 648.378 1300.06 647.595 1300.06 646.778C1300.07 645.967 1300.4 645.193 1300.98 644.619C1301.55 644.045 1302.32 643.716 1303.14 643.7H1407.03C1407.84 643.716 1408.62 644.045 1409.19 644.619C1409.76 645.193 1410.09 645.967 1410.11 646.778C1410.11 647.595 1409.79 648.378 1409.21 648.955C1408.63 649.532 1407.85 649.857 1407.03 649.857Z" fill="#231F20"/>
<path d="M1393.12 672.574H1289.29C1288.47 672.574 1287.69 672.249 1287.11 671.672C1286.53 671.095 1286.21 670.312 1286.21 669.495C1286.21 668.679 1286.53 667.896 1287.11 667.319C1287.69 666.742 1288.47 666.417 1289.29 666.417H1393.12C1393.94 666.417 1394.72 666.742 1395.3 667.319C1395.88 667.896 1396.2 668.679 1396.2 669.495C1396.2 670.312 1395.88 671.095 1395.3 671.672C1394.72 672.249 1393.94 672.574 1393.12 672.574Z" fill="#231F20"/>
<path d="M1508.28 1472.22C1507.71 1472.21 1507.15 1472.05 1506.66 1471.75C1506.17 1471.44 1505.77 1471.01 1505.51 1470.5C1505.02 1469.51 1505.02 1469.51 1551.49 1288.27C1551.7 1287.45 1552.22 1286.75 1552.94 1286.32C1553.66 1285.88 1554.52 1285.76 1555.34 1285.96C1556.15 1286.16 1556.86 1286.68 1557.29 1287.41C1557.72 1288.13 1557.85 1288.99 1557.65 1289.81C1557.65 1289.81 1511.73 1468.71 1511.48 1469.88C1511.31 1470.48 1510.97 1471.03 1510.5 1471.44C1510.03 1471.85 1509.46 1472.13 1508.84 1472.22H1508.28Z" fill="white"/>
<path d="M1446.42 1150.86C1445.84 1150.85 1445.26 1150.68 1444.76 1150.37L1270.39 1035.92C1270.05 1035.7 1269.76 1035.42 1269.53 1035.09C1269.3 1034.75 1269.14 1034.38 1269.06 1033.98C1268.98 1033.58 1268.98 1033.17 1269.06 1032.78C1269.14 1032.38 1269.3 1032.01 1269.53 1031.67C1269.98 1031 1270.68 1030.53 1271.48 1030.37C1272.27 1030.21 1273.1 1030.37 1273.78 1030.81L1448.09 1145.2C1448.77 1145.66 1449.24 1146.37 1449.4 1147.17C1449.56 1147.98 1449.4 1148.82 1448.95 1149.51C1448.66 1149.91 1448.28 1150.25 1447.85 1150.48C1447.41 1150.72 1446.92 1150.85 1446.42 1150.86V1150.86Z" fill="white"/>
<path d="M1585.96 1048.17C1585.96 1101.33 1607.07 1152.32 1644.66 1189.91C1682.24 1227.5 1733.21 1248.62 1786.37 1248.62C1839.52 1248.62 1890.49 1227.5 1928.07 1189.91C1965.66 1152.32 1986.77 1101.33 1986.77 1048.17H1786.37V847.968C1733.26 847.984 1682.33 869.074 1644.76 906.609C1607.19 944.144 1586.04 995.057 1585.96 1048.17V1048.17Z" fill="#BFF5C1"/>
<path d="M1818.74 818.109V1018.56H2019.15C2019.15 965.397 1998.03 914.412 1960.45 876.82C1922.87 839.228 1871.89 818.109 1818.74 818.109V818.109Z" fill="#E6E7E8"/>
<path d="M1908.85 734.445H1789.2C1788.79 734.505 1788.37 734.476 1787.97 734.36C1787.57 734.244 1787.2 734.043 1786.88 733.772C1786.57 733.5 1786.32 733.164 1786.15 732.786C1785.97 732.408 1785.88 731.998 1785.88 731.582C1785.88 731.166 1785.97 730.756 1786.15 730.378C1786.32 730 1786.57 729.664 1786.88 729.392C1787.2 729.121 1787.57 728.92 1787.97 728.804C1788.37 728.688 1788.79 728.659 1789.2 728.719H1908.85C1909.54 728.82 1910.16 729.165 1910.62 729.691C1911.07 730.216 1911.32 730.888 1911.32 731.582C1911.32 732.276 1911.07 732.948 1910.62 733.473C1910.16 733.999 1909.54 734.344 1908.85 734.445V734.445Z" fill="#D1D3D4"/>
<path d="M1953.9 734.445H1931.19C1930.51 734.344 1929.88 733.999 1929.42 733.473C1928.97 732.948 1928.72 732.276 1928.72 731.582C1928.72 730.888 1928.97 730.216 1929.42 729.691C1929.88 729.165 1930.51 728.82 1931.19 728.719H1953.9C1954.32 728.659 1954.74 728.688 1955.13 728.804C1955.53 728.92 1955.9 729.121 1956.22 729.392C1956.53 729.664 1956.78 730 1956.96 730.378C1957.13 730.756 1957.22 731.166 1957.22 731.582C1957.22 731.998 1957.13 732.408 1956.96 732.786C1956.78 733.164 1956.53 733.5 1956.22 733.772C1955.9 734.043 1955.53 734.244 1955.13 734.36C1954.74 734.476 1954.32 734.505 1953.9 734.445V734.445Z" fill="#D1D3D4"/>
<path d="M1964.61 683.716H1788.15C1787.46 683.615 1786.84 683.271 1786.38 682.745C1785.93 682.219 1785.68 681.548 1785.68 680.854C1785.68 680.159 1785.93 679.488 1786.38 678.962C1786.84 678.437 1787.46 678.092 1788.15 677.991H1964.61C1965.3 678.092 1965.93 678.437 1966.38 678.962C1966.84 679.488 1967.09 680.159 1967.09 680.854C1967.09 681.548 1966.84 682.219 1966.38 682.745C1965.93 683.271 1965.3 683.615 1964.61 683.716V683.716Z" fill="#D1D3D4"/>
<path d="M1846.07 632.988H1788.77C1788.01 632.988 1787.29 632.69 1786.76 632.159C1786.23 631.628 1785.93 630.907 1785.93 630.156C1785.93 629.782 1785.99 629.41 1786.13 629.063C1786.27 628.715 1786.48 628.4 1786.74 628.135C1787.01 627.87 1787.32 627.662 1787.67 627.523C1788.02 627.383 1788.39 627.316 1788.77 627.324H1846.07C1846.82 627.324 1847.54 627.623 1848.07 628.154C1848.6 628.685 1848.9 629.405 1848.9 630.156C1848.88 630.902 1848.58 631.614 1848.05 632.141C1847.53 632.669 1846.81 632.973 1846.07 632.988V632.988Z" fill="#D1D3D4"/>
<path d="M1983.45 634.774H1881.46C1881.09 634.782 1880.71 634.715 1880.37 634.575C1880.02 634.436 1879.7 634.228 1879.44 633.963C1879.18 633.698 1878.97 633.383 1878.83 633.035C1878.69 632.688 1878.62 632.316 1878.63 631.942C1878.63 631.191 1878.93 630.47 1879.46 629.939C1879.99 629.408 1880.71 629.11 1881.46 629.11H1983.45C1984.2 629.126 1984.91 629.429 1985.43 629.957C1985.96 630.484 1986.26 631.196 1986.28 631.942C1986.28 632.693 1985.98 633.413 1985.45 633.944C1984.92 634.475 1984.2 634.774 1983.45 634.774V634.774Z" fill="#D1D3D4"/>
<path d="M1908.85 734.445H1789.2C1788.79 734.505 1788.37 734.476 1787.97 734.36C1787.57 734.244 1787.2 734.043 1786.88 733.772C1786.57 733.5 1786.32 733.164 1786.15 732.786C1785.97 732.408 1785.88 731.998 1785.88 731.582C1785.88 731.166 1785.97 730.756 1786.15 730.378C1786.32 730 1786.57 729.664 1786.88 729.392C1787.2 729.121 1787.57 728.92 1787.97 728.804C1788.37 728.688 1788.79 728.659 1789.2 728.719H1908.85C1909.54 728.82 1910.16 729.165 1910.62 729.691C1911.07 730.216 1911.32 730.888 1911.32 731.582C1911.32 732.276 1911.07 732.948 1910.62 733.473C1910.16 733.999 1909.54 734.344 1908.85 734.445V734.445Z" stroke="#E6E7E8" stroke-width="1.015" stroke-linecap="round" stroke-linejoin="round"/>
<path d="M1953.9 734.445H1931.19C1930.51 734.344 1929.88 733.999 1929.42 733.473C1928.97 732.948 1928.72 732.276 1928.72 731.582C1928.72 730.888 1928.97 730.216 1929.42 729.691C1929.88 729.165 1930.51 728.82 1931.19 728.719H1953.9C1954.32 728.659 1954.74 728.688 1955.13 728.804C1955.53 728.92 1955.9 729.121 1956.22 729.392C1956.53 729.664 1956.78 730 1956.96 730.378C1957.13 730.756 1957.22 731.166 1957.22 731.582C1957.22 731.998 1957.13 732.408 1956.96 732.786C1956.78 733.164 1956.53 733.5 1956.22 733.772C1955.9 734.043 1955.53 734.244 1955.13 734.36C1954.74 734.476 1954.32 734.505 1953.9 734.445V734.445Z" stroke="#E6E7E8" stroke-width="1.015" stroke-linecap="round" stroke-linejoin="round"/>
<path d="M1964.61 683.716H1788.15C1787.46 683.615 1786.84 683.271 1786.38 682.745C1785.93 682.219 1785.68 681.548 1785.68 680.854C1785.68 680.159 1785.93 679.488 1786.38 678.962C1786.84 678.437 1787.46 678.092 1788.15 677.991H1964.61C1965.3 678.092 1965.93 678.437 1966.38 678.962C1966.84 679.488 1967.09 680.159 1967.09 680.854C1967.09 681.548 1966.84 682.219 1966.38 682.745C1965.93 683.271 1965.3 683.615 1964.61 683.716V683.716Z" stroke="#E6E7E8" stroke-width="1.015" stroke-linecap="round" stroke-linejoin="round"/>
<path d="M1846.07 632.988H1788.77C1788.01 632.988 1787.29 632.69 1786.76 632.159C1786.23 631.628 1785.93 630.907 1785.93 630.156C1785.93 629.782 1785.99 629.41 1786.13 629.063C1786.27 628.715 1786.48 628.4 1786.74 628.135C1787.01 627.87 1787.32 627.662 1787.67 627.523C1788.02 627.383 1788.39 627.316 1788.77 627.324H1846.07C1846.82 627.324 1847.54 627.623 1848.07 628.154C1848.6 628.685 1848.9 629.405 1848.9 630.156C1848.88 630.902 1848.58 631.614 1848.05 632.141C1847.53 632.669 1846.81 632.973 1846.07 632.988V632.988Z" stroke="#E6E7E8" stroke-width="1.015" stroke-linecap="round" stroke-linejoin="round"/>
<path d="M1983.45 634.774H1881.46C1881.09 634.782 1880.71 634.715 1880.37 634.575C1880.02 634.436 1879.7 634.228 1879.44 633.963C1879.18 633.698 1878.97 633.383 1878.83 633.035C1878.69 632.688 1878.62 632.316 1878.63 631.942C1878.63 631.191 1878.93 630.47 1879.46 629.939C1879.99 629.408 1880.71 629.11 1881.46 629.11H1983.45C1984.2 629.126 1984.91 629.429 1985.43 629.957C1985.96 630.484 1986.26 631.196 1986.28 631.942C1986.28 632.693 1985.98 633.413 1985.45 633.944C1984.92 634.475 1984.2 634.774 1983.45 634.774V634.774Z" stroke="#E6E7E8" stroke-width="1.015" stroke-linecap="round" stroke-linejoin="round"/>
<path d="M1984.8 1320.77H1787.41C1786.6 1320.77 1785.81 1320.45 1785.24 1319.87C1784.66 1319.3 1784.33 1318.51 1784.33 1317.7C1784.33 1316.88 1784.66 1316.1 1785.24 1315.52C1785.81 1314.94 1786.6 1314.62 1787.41 1314.62H1984.8C1985.62 1314.62 1986.4 1314.94 1986.98 1315.52C1987.56 1316.1 1987.88 1316.88 1987.88 1317.7C1987.88 1318.51 1987.56 1319.3 1986.98 1319.87C1986.4 1320.45 1985.62 1320.77 1984.8 1320.77Z" fill="#D1D3D4"/>
<path d="M1942.27 1376.86H1790.31C1789.49 1376.86 1788.71 1376.53 1788.13 1375.96C1787.55 1375.38 1787.23 1374.6 1787.23 1373.78C1787.23 1372.96 1787.55 1372.18 1788.13 1371.6C1788.71 1371.03 1789.49 1370.7 1790.31 1370.7H1942.27C1943.08 1370.72 1943.86 1371.05 1944.43 1371.62C1945 1372.2 1945.33 1372.97 1945.35 1373.78C1945.35 1374.6 1945.03 1375.38 1944.45 1375.96C1943.87 1376.53 1943.09 1376.86 1942.27 1376.86Z" fill="#D1D3D4"/>
<path d="M1963.44 1430.97H1787.41C1786.6 1430.97 1785.81 1430.65 1785.24 1430.07C1784.66 1429.49 1784.33 1428.71 1784.33 1427.89C1784.33 1427.08 1784.66 1426.3 1785.24 1425.72C1785.81 1425.14 1786.6 1424.82 1787.41 1424.82H1963.44C1964.26 1424.83 1965.03 1425.16 1965.6 1425.74C1966.18 1426.31 1966.51 1427.08 1966.52 1427.89C1966.52 1428.71 1966.2 1429.49 1965.62 1430.07C1965.04 1430.65 1964.26 1430.97 1963.44 1430.97Z" fill="#D1D3D4"/>
<path d="M1991.57 1374.21H1963.44C1962.63 1374.21 1961.85 1373.89 1961.27 1373.31C1960.69 1372.73 1960.37 1371.95 1960.37 1371.13C1960.37 1370.32 1960.69 1369.53 1961.27 1368.96C1961.85 1368.38 1962.63 1368.06 1963.44 1368.06H1991.45C1992.27 1368.06 1993.05 1368.38 1993.63 1368.96C1994.2 1369.53 1994.53 1370.32 1994.53 1371.13C1994.53 1371.95 1994.2 1372.73 1993.63 1373.31C1993.05 1373.89 1992.27 1374.21 1991.45 1374.21H1991.57Z" fill="#D1D3D4"/>
<path d="M810.552 552.032H478.92C478.104 552.032 477.321 551.708 476.744 551.131C476.167 550.554 475.843 549.771 475.843 548.954V276.967C475.843 276.151 476.167 275.368 476.744 274.79C477.321 274.213 478.104 273.889 478.92 273.889C479.736 273.889 480.519 274.213 481.096 274.79C481.674 275.368 481.998 276.151 481.998 276.967V545.876H810.552C811.368 545.876 812.151 546.2 812.728 546.778C813.305 547.355 813.629 548.138 813.629 548.954C813.629 549.771 813.305 550.554 812.728 551.131C812.151 551.708 811.368 552.032 810.552 552.032Z" fill="#E6E7E8"/>
<path d="M478.92 552.032C478.137 552.028 477.387 551.719 476.828 551.17C476.533 550.894 476.299 550.56 476.138 550.19C475.978 549.819 475.895 549.42 475.895 549.016C475.895 548.612 475.978 548.212 476.138 547.842C476.299 547.471 476.533 547.137 476.828 546.861L616.115 397.57C616.45 397.23 616.854 396.965 617.3 396.796C617.747 396.626 618.224 396.554 618.7 396.585C619.165 396.649 619.61 396.815 620.003 397.07C620.397 397.325 620.73 397.664 620.978 398.062L651.753 447.682L748.509 341.239C748.772 340.912 749.099 340.642 749.469 340.446C749.84 340.25 750.247 340.131 750.665 340.098C751.084 340.065 751.504 340.118 751.901 340.253C752.298 340.388 752.663 340.603 752.974 340.885C753.285 341.166 753.535 341.509 753.709 341.89C753.883 342.272 753.977 342.686 753.986 343.105C753.994 343.525 753.917 343.941 753.758 344.33C753.6 344.718 753.363 345.07 753.064 345.364L653.661 454.824C653.334 455.175 652.931 455.446 652.483 455.616C652.034 455.787 651.553 455.853 651.076 455.809C650.601 455.779 650.14 455.634 649.733 455.388C649.325 455.141 648.984 454.8 648.737 454.393L617.962 404.711L481.136 551.047C480.857 551.359 480.516 551.608 480.134 551.778C479.752 551.948 479.338 552.034 478.92 552.032V552.032Z" fill="#E6E7E8"/>
<path d="M1889.58 564.776C1888.98 564.756 1888.4 564.55 1887.91 564.187C1887.43 563.823 1887.07 563.32 1886.88 562.744L1776.39 255.543L1654.71 492.377C1654.46 492.833 1654.11 493.222 1653.68 493.512C1653.25 493.801 1652.76 493.982 1652.25 494.04C1651.73 494.074 1651.21 493.98 1650.74 493.765C1650.27 493.55 1649.85 493.222 1649.54 492.808L1529.46 335.76L1453.69 457.225C1453.25 457.907 1452.56 458.391 1451.76 458.575C1450.97 458.759 1450.14 458.628 1449.44 458.21L1385.74 419.856C1385.36 419.665 1385.02 419.397 1384.75 419.069C1384.47 418.741 1384.27 418.36 1384.16 417.95C1384.04 417.541 1384.01 417.111 1384.07 416.689C1384.12 416.267 1384.27 415.861 1384.49 415.498C1384.71 415.134 1385.01 414.821 1385.36 414.577C1385.71 414.334 1386.1 414.166 1386.52 414.084C1386.94 414.001 1387.37 414.007 1387.79 414.1C1388.2 414.193 1388.59 414.371 1388.94 414.623L1450.06 451.561L1526.44 328.742C1526.71 328.321 1527.07 327.968 1527.5 327.712C1527.92 327.455 1528.4 327.302 1528.9 327.264C1529.4 327.228 1529.9 327.322 1530.36 327.538C1530.81 327.754 1531.2 328.084 1531.49 328.496L1651.32 485.236L1774.06 246.432C1774.34 245.906 1774.77 245.471 1775.29 245.177C1775.82 244.883 1776.41 244.742 1777.01 244.769C1777.6 244.828 1778.17 245.048 1778.65 245.406C1779.13 245.765 1779.5 246.247 1779.72 246.801L1889.77 553.448L1943.93 438.879C1944.07 438.466 1944.29 438.087 1944.59 437.767C1944.88 437.447 1945.24 437.192 1945.64 437.02C1946.03 436.848 1946.47 436.762 1946.9 436.769C1947.33 436.775 1947.76 436.873 1948.16 437.057C1948.55 437.241 1948.9 437.506 1949.18 437.835C1949.47 438.164 1949.68 438.549 1949.8 438.965C1949.93 439.382 1949.96 439.82 1949.91 440.25C1949.85 440.681 1949.7 441.095 1949.47 441.465L1892.17 562.806C1891.97 563.347 1891.62 563.82 1891.17 564.169C1890.71 564.518 1890.16 564.729 1889.58 564.776V564.776Z" fill="#D1D3D4"/>
<path d="M1451.04 470.338C1459.37 470.338 1466.12 463.585 1466.12 455.255C1466.12 446.925 1459.37 440.172 1451.04 440.172C1442.71 440.172 1435.96 446.925 1435.96 455.255C1435.96 463.585 1442.71 470.338 1451.04 470.338Z" fill="white"/>
<path d="M1451.04 473.478C1447.39 473.478 1443.82 472.394 1440.78 470.365C1437.75 468.336 1435.38 465.451 1433.98 462.076C1432.58 458.702 1432.22 454.988 1432.93 451.405C1433.64 447.823 1435.4 444.532 1437.98 441.949C1440.57 439.366 1443.86 437.607 1447.44 436.894C1451.02 436.182 1454.73 436.548 1458.11 437.945C1461.48 439.343 1464.37 441.711 1466.39 444.748C1468.42 447.785 1469.51 451.356 1469.51 455.009C1469.51 459.907 1467.56 464.605 1464.1 468.068C1460.64 471.532 1455.94 473.478 1451.04 473.478ZM1451.04 443.25C1448.59 443.251 1446.2 443.981 1444.17 445.348C1442.14 446.715 1440.56 448.657 1439.64 450.925C1438.72 453.192 1438.49 455.684 1439 458.08C1439.5 460.477 1440.7 462.669 1442.45 464.379C1444.2 466.088 1446.43 467.235 1448.83 467.675C1451.24 468.115 1453.73 467.827 1455.97 466.847C1458.21 465.868 1460.11 464.242 1461.43 462.177C1462.74 460.112 1463.41 457.702 1463.35 455.255C1463.27 452.043 1461.94 448.99 1459.64 446.747C1457.34 444.504 1454.25 443.249 1451.04 443.25V443.25Z" fill="#D1D3D4"/>
<path d="M1529.15 345.426C1537.48 345.426 1544.23 338.673 1544.23 330.343C1544.23 322.012 1537.48 315.26 1529.15 315.26C1520.82 315.26 1514.07 322.012 1514.07 330.343C1514.07 338.673 1520.82 345.426 1529.15 345.426Z" fill="white"/>
<path d="M1529.15 348.504C1525.48 348.503 1521.9 347.412 1518.86 345.369C1515.82 343.325 1513.45 340.422 1512.06 337.03C1510.67 333.637 1510.33 329.908 1511.06 326.317C1511.8 322.726 1513.59 319.436 1516.2 316.866C1518.82 314.296 1522.14 312.561 1525.74 311.884C1529.34 311.206 1533.06 311.616 1536.43 313.062C1539.8 314.507 1542.66 316.922 1544.65 319.999C1546.64 323.077 1547.67 326.677 1547.61 330.343C1547.53 335.187 1545.55 339.806 1542.1 343.204C1538.64 346.601 1533.99 348.505 1529.15 348.504V348.504ZM1529.15 318.338C1526.71 318.338 1524.33 319.06 1522.31 320.413C1520.28 321.766 1518.71 323.689 1517.78 325.939C1516.84 328.188 1516.6 330.664 1517.07 333.053C1517.55 335.441 1518.72 337.635 1520.44 339.357C1522.17 341.079 1524.36 342.251 1526.75 342.727C1529.13 343.202 1531.61 342.958 1533.86 342.026C1536.11 341.094 1538.03 339.516 1539.38 337.491C1540.74 335.466 1541.46 333.086 1541.46 330.65C1541.41 327.417 1540.09 324.333 1537.79 322.063C1535.48 319.794 1532.38 318.522 1529.15 318.522V318.338Z" fill="#D1D3D4"/>
<path d="M1776.95 262.931C1785.28 262.931 1792.03 256.178 1792.03 247.848C1792.03 239.518 1785.28 232.765 1776.95 232.765C1768.62 232.765 1761.87 239.518 1761.87 247.848C1761.87 256.178 1768.62 262.931 1776.95 262.931Z" fill="white"/>
<path d="M1776.89 266.009C1773.22 266.008 1769.64 264.917 1766.6 262.874C1763.55 260.83 1761.19 257.927 1759.8 254.535C1758.41 251.142 1758.07 247.413 1758.8 243.822C1759.54 240.231 1761.33 236.941 1763.94 234.371C1766.56 231.801 1769.88 230.066 1773.48 229.389C1777.08 228.711 1780.8 229.121 1784.17 230.567C1787.54 232.012 1790.4 234.427 1792.39 237.504C1794.38 240.582 1795.41 244.182 1795.35 247.848C1795.27 252.692 1793.29 257.311 1789.84 260.709C1786.38 264.106 1781.73 266.01 1776.89 266.009ZM1776.89 235.843C1774.45 235.843 1772.07 236.565 1770.05 237.918C1768.02 239.271 1766.45 241.194 1765.51 243.444C1764.58 245.693 1764.34 248.169 1764.81 250.558C1765.29 252.946 1766.46 255.14 1768.18 256.862C1769.9 258.584 1772.1 259.756 1774.49 260.232C1776.87 260.707 1779.35 260.463 1781.6 259.531C1783.85 258.599 1785.77 257.021 1787.12 254.996C1788.48 252.971 1789.2 250.591 1789.2 248.155C1789.2 244.89 1787.9 241.758 1785.59 239.449C1783.28 237.14 1780.15 235.843 1776.89 235.843Z" fill="#D1D3D4"/>
<path d="M1889.52 576.596C1897.85 576.596 1904.6 569.843 1904.6 561.513C1904.6 553.183 1897.85 546.43 1889.52 546.43C1881.19 546.43 1874.44 553.183 1874.44 561.513C1874.44 569.843 1881.19 576.596 1889.52 576.596Z" fill="white"/>
<path d="M1889.59 579.674C1885.92 579.735 1882.32 578.704 1879.24 576.712C1876.17 574.721 1873.75 571.858 1872.31 568.489C1870.86 565.12 1870.45 561.397 1871.13 557.795C1871.81 554.192 1873.54 550.872 1876.11 548.258C1878.68 545.645 1881.97 543.855 1885.56 543.117C1889.15 542.379 1892.88 542.726 1896.27 544.115C1899.66 545.503 1902.57 547.87 1904.61 550.913C1906.65 553.957 1907.74 557.539 1907.74 561.205C1907.74 566.051 1905.84 570.702 1902.44 574.157C1899.05 577.612 1894.43 579.593 1889.59 579.674V579.674ZM1889.59 549.447C1887.14 549.385 1884.73 550.055 1882.66 551.37C1880.6 552.686 1878.97 554.586 1878 556.83C1877.02 559.074 1876.73 561.559 1877.17 563.967C1877.61 566.376 1878.75 568.598 1880.46 570.351C1882.17 572.104 1884.36 573.307 1886.76 573.808C1889.16 574.309 1891.65 574.083 1893.91 573.161C1896.18 572.239 1898.12 570.662 1899.49 568.631C1900.86 566.6 1901.59 564.207 1901.59 561.759C1901.59 558.546 1900.33 555.46 1898.09 553.16C1895.85 550.86 1892.8 549.527 1889.59 549.447Z" fill="#D1D3D4"/>
<path d="M1652 506.044C1660.33 506.044 1667.08 499.292 1667.08 490.961C1667.08 482.631 1660.33 475.878 1652 475.878C1643.67 475.878 1636.92 482.631 1636.92 490.961C1636.92 499.292 1643.67 506.044 1652 506.044Z" fill="white"/>
<path d="M1652 509.369C1648.34 509.368 1644.75 508.277 1641.71 506.234C1638.67 504.19 1636.3 501.287 1634.91 497.895C1633.53 494.502 1633.18 490.773 1633.92 487.182C1634.65 483.591 1636.44 480.301 1639.06 477.731C1641.67 475.161 1644.99 473.427 1648.59 472.749C1652.19 472.072 1655.92 472.482 1659.28 473.927C1662.65 475.372 1665.51 477.787 1667.51 480.864C1669.5 483.942 1670.53 487.542 1670.47 491.208C1670.39 496.052 1668.4 500.671 1664.95 504.069C1661.5 507.466 1656.85 509.37 1652 509.369V509.369ZM1652 479.203C1649.66 479.264 1647.38 480.012 1645.45 481.354C1643.53 482.696 1642.04 484.574 1641.17 486.754C1640.3 488.935 1640.08 491.323 1640.56 493.622C1641.03 495.922 1642.17 498.032 1643.83 499.692C1645.49 501.353 1647.6 502.489 1649.9 502.962C1652.19 503.435 1654.58 503.224 1656.76 502.353C1658.94 501.483 1660.82 499.993 1662.16 498.066C1663.5 496.14 1664.25 493.863 1664.31 491.516C1664.34 489.878 1664.05 488.25 1663.45 486.728C1662.84 485.206 1661.94 483.819 1660.79 482.65C1659.65 481.48 1658.28 480.551 1656.77 479.917C1655.26 479.283 1653.64 478.956 1652 478.957V479.203Z" fill="#D1D3D4"/>
<path d="M895.43 313.659H810.552C809.736 313.659 808.953 313.335 808.376 312.757C807.799 312.18 807.475 311.397 807.475 310.581C807.475 309.764 807.799 308.981 808.376 308.404C808.953 307.827 809.736 307.503 810.552 307.503H895.43C896.246 307.503 897.029 307.827 897.606 308.404C898.183 308.981 898.507 309.764 898.507 310.581C898.507 311.397 898.183 312.18 897.606 312.757C897.029 313.335 896.246 313.659 895.43 313.659Z" fill="#D1D3D4"/>
<path d="M895.43 335.576H810.552C809.736 335.576 808.953 335.251 808.376 334.674C807.799 334.097 807.475 333.314 807.475 332.497C807.475 331.681 807.799 330.898 808.376 330.321C808.953 329.743 809.736 329.419 810.552 329.419H895.43C896.246 329.419 897.029 329.743 897.606 330.321C898.183 330.898 898.507 331.681 898.507 332.497C898.507 333.314 898.183 334.097 897.606 334.674C897.029 335.251 896.246 335.576 895.43 335.576Z" fill="#D1D3D4"/>
<path d="M866.87 357.554H810.552C809.736 357.554 808.953 357.229 808.376 356.652C807.799 356.075 807.475 355.292 807.475 354.476C807.475 353.659 807.799 352.876 808.376 352.299C808.953 351.722 809.736 351.397 810.552 351.397H866.87C867.682 351.413 868.455 351.742 869.029 352.316C869.603 352.89 869.932 353.664 869.948 354.476C869.948 355.292 869.624 356.075 869.046 356.652C868.469 357.229 867.687 357.554 866.87 357.554Z" fill="#D1D3D4"/>
</svg>
